<?xml version="1.0" encoding="utf-8"?>
<!-- Generator: Adobe Illustrator 25.4.1, SVG Export Plug-In . SVG Version: 6.00 Build 0)  -->
<svg version="1.1" id="Layer_1" xmlns:serif="http://www.serif.com/"
	 xmlns="http://www.w3.org/2000/svg" xmlns:xlink="http://www.w3.org/1999/xlink" x="0px" y="0px" viewBox="0 0 1080 964.2"
	 style="enable-background:new 0 0 1080 964.2;" xml:space="preserve">
<style type="text/css">
	.st0{fill:#332B24;}
	.st1{fill:#CEBBA1;}
	.st2{fill:#A68966;}
	.st3{fill:#7E694E;}
	.st4{fill:#76543A;}
	.st5{fill:#88756D;}
	.st6{fill:#B59B91;}
	.st7{fill:#9D6F4D;}
	.st8{fill:#EECCBE;}
	.st9{fill:#CE9265;}
	.st10{fill:#BD9F73;}
	.st11{fill:#8C6334;}
	.st12{fill:#B08654;}
	.st13{fill:#BB9D71;}
	.st14{fill:#FEEA89;}
	.st15{fill:#FCD64A;}
	.st16{fill:#F6E4DC;}
	.st17{fill:#BC6900;}
	.st18{fill:#8E4F00;}
	.st19{fill:#B7998B;}
	.st20{fill:#79471C;}
	.st21{fill:#8B6F56;}
	.st22{fill:#835836;}
	.st23{fill:#B27E57;}
	.st24{fill:#443326;}
	.st25{fill:#9B6E4C;}
	.st26{fill:#AF997D;}
	.st27{fill:#C8B08F;}
	.st28{fill:#785C3D;}
	.st29{fill:#9D7950;}
	.st30{fill:#CA9C67;}
	.st31{fill:#E3C7A2;}
	.st32{fill:#9A7E69;}
	.st33{fill:#C7A286;}
	.st34{fill:#C6A286;}
	.st35{fill:#674121;}
	.st36{fill:#DCC19D;}
	.st37{fill:#DCC5B0;}
	.st38{fill:#CAA88E;}
	.st39{fill:#DABC96;}
	.st40{fill:#FFFFFF;}
	.st41{fill:#CBA77C;}
	.st42{fill:#C6C6C6;}
	.st43{fill:#979797;}
	.st44{fill:#AE8F70;}
	.st45{fill:#AD8F70;}
	.st46{fill:#2F6B9D;}
	.st47{fill:#AD7448;}
	.st48{fill:#E5C1A0;}
	.st49{fill:#7EBDE5;}
	.st50{fill:#3E8CCE;}
	.st51{fill:#A4B1B7;}
	.st52{fill:#616161;}
	.st53{fill:#B5B5B5;}
	.st54{fill:#808080;}
	.st55{fill:#3E8ACA;}
	.st56{fill:#438BC7;}
	.st57{fill:#68A0C4;}
	.st58{fill:#6EA5C8;}
	.st59{fill:#DBF0F9;}
</style>
<g id="_-332b24ff" serif:id="#332b24ff">
	<path class="st0" d="M483.7,13.6c17.9-5.3,36.7-6.7,55.2-6.6c19-0.2,38.2,1,56.5,6.3c18.6,5.3,37.1,11.6,54.3,20.6
		c28.6,14.9,56.6,32.6,77.3,57.7c11.9,13.9,20.8,30,28.4,46.5c8,18,13,37.5,12.1,57.3c-0.8,21-9.1,40.6-15.2,60.4
		c-1.9,6.8-5.1,13.1-6.9,19.9c0.8,3.5,3.3,6.6,3.2,10.3c-0.1,4.9-2.1,9.5-3.6,14.1c-4.4,12.6-6.4,25.8-9.9,38.6
		c-2.5,11.5-4.4,23.2-7.6,34.6c4.1-1.5,8.4-3,12.8-2.8c16.2,0,30.6,15.2,29.4,31.4c-0.5,19.6-7,38.5-14,56.7
		c-4.5,11.4-10.3,22.2-14.7,33.7c-3.1,7.4-7.9,15.1-15.9,17.9c-4.5,1.7-9.4,1-13.8-0.4c-0.6,8.4-1.2,16.8-2,25.1
		c-1.1,8.8-2.8,17.6-6.1,25.8c-2.9,8.6-8,16.3-10.1,25.1c-0.4,8.3-0.3,16.6-0.5,25c-0.1,4.5-0.1,9-0.3,13.6
		c-0.1,1.8-0.1,3.7-0.2,5.6c5.7,3.8,11.8,7.3,16,12.9c2.8,3.6,4.3,8,5.2,12.4c0.6,4-0.1,8.1,0.4,12.2c2.7,2.8,6.4,4.4,9.7,6.5
		c12.6,7.5,25,15.1,37.3,23.1c11.3,7.5,21.9,15.8,32.6,24c30.2,10.8,63.5,13.3,91.7,29.7c10,5.5,18.3,13.6,28.2,19.2
		c16.5,8.6,34.3,14.1,51.3,21.5c18.5,7.1,36.9,14.7,53.7,25.4c12.6,8.5,23.9,18.9,34.7,29.6c8.8,9.8,18.1,19.2,26.9,29v20.5
		c-11.6-14.4-24.9-27.4-37.3-41.1c-12.9-12.6-26.3-25.2-42.5-33.4c-15.2-8.4-31.6-14.1-47.5-21.1c-10.1-4.4-20.5-8.2-30.6-12.6
		c-8.4-3.5-16.6-7.5-23.9-13.1c-6.8-5.2-13.5-10.6-21.1-14.7c-20.7-11.3-43.8-16.5-66.1-23.6c9.4,9.2,19.1,18.2,27.7,28.1
		c5.3,6.4,10.6,13.4,11.9,21.8c0.9,8.3-2,16.5-5.6,23.9c-3.3,6.8-8.3,12.7-11.9,19.4c-2,0.3-4,0.2-5.9-0.4
		c-3.6-8.6-10.9-14.7-17.8-20.6c-12.1-9.8-26.1-17-40.4-22.8c-15.4-6.2-32-8.6-48.4-10.7c0.8,12.4-1.1,25.1-6.2,36.5
		c-4.5,9.9-14.6,15.8-24.8,18.4c-5.3,1.3-10.7,2.1-16,3.6c2.8,7.7,6.9,15,8.4,23.2c1.1,7.9,0.4,16.3-3.6,23.2
		c-4.6,8.2-12.4,14-16.4,22.6c-9.2,20.2-16.6,41.1-25.2,61.5h-8.8c3.8-10.3,7.4-20.6,10.6-31c3.1-10.8,6.4-21.5,10.3-31.9
		c2.7-7.2,7.3-13.4,12.4-19c2-2,4.2-3.9,6-6.1c4.6-5.7,6.5-13.3,5.4-20.6c-0.5-7.4-4.2-14.2-5.2-21.5c0.1-0.4,0.2-1.2,0.3-1.6
		c5.8-4.8,11.9-9.3,18.6-12.8c6-3.5,12.9-6.8,16.1-13.3c3.2-6.4,4.8-13.5,6.3-20.5c1.3-5.5,1.1-11.3,3.3-16.5
		c2.8-4.4,8.7-4.5,13.4-4.8c16.3,0,32.6,3.2,47.5,9.6c22.1,9.8,43.2,23.8,56.7,44.3c3.2-8.5,7.7-16.7,8.5-25.8
		c0-3.3-0.8-6.6-2.5-9.4c-5.7-9.8-14-17.6-21.9-25.6c-21-20.7-43.6-39.9-68.1-56.4c-11.2-7.4-22.2-15.3-33.8-22.1
		c-2-1.3-3.9-2.6-5.7-4.1c-5.2-5.5-1.8-13.3-2.9-19.9c-0.9-7.5-6.4-13-11.5-18.1c-1.9,22.2-3.9,44.3-5.5,66.5
		c-1.2,16.5-4.8,32.7-7.9,48.9c-1.6,16.4-4.4,32.7-10,48.2c-6.3,18.4-12.5,36.8-20.1,54.7c-15.5,36.3-27.9,74-47,108.7h-11.1
		c8-14.8,14.1-30.6,20.4-46.3c10.2-26.6,20.2-53.2,31.2-79.6c2.7-6.6,5.2-13.3,7.4-20c-4.4,3.4-8.5,7.1-13,10.3
		c-7.6,5-15.8,8.9-24,12.7c-15.1,6.8-31.5,10.4-48,11.1c-10.9,0.8-21.8,0-32.7,0.4c-20.9,0.4-42.3-2.1-61.6-10.5
		c-9-4-18-8.2-26.3-13.6c-4.5-3.3-8.6-7-13-10.3c6.2,18.9,14.6,36.9,21.6,55.4c11.2,28.7,21.4,57.7,34.6,85.5
		c0.8,1.7,1.7,3.3,2.7,4.9h-11.1c-14-25.4-24.4-52.5-35.1-79.5c-7.5-19.1-16-37.9-22.8-57.2c-4.3-12.6-9-25.1-12.8-38
		c-3.2-11.1-4.9-22.6-6.1-34c-1.1-9.6-3.9-18.9-5.2-28.5c-3.3-17.4-3.7-35.2-5.4-52.8c-1.2-12.3-2-24.6-3.2-36.9
		c-5.1,5-10.6,10.6-11.5,18.1c-1.1,6.6,2.3,14.4-2.9,19.9c-5,4.1-10.8,6.9-16.1,10.6c-15.1,10.2-30.4,20-44.8,31.2
		c-18.7,14.5-36.4,30.3-52.9,47.3c-5.9,6.1-11.8,12.4-16,19.9c-1.5,2.6-2.1,5.7-2.2,8.7c0.8,9.2,5.3,17.3,8.5,25.8
		c8.3-12.2,19-22.6,31.4-30.6c15.9-10.3,33.3-18.7,52.2-21.7c8.5-1.3,17.2-2.4,25.9-1.3c3.5,0.4,7.7,2,8.8,5.8
		c1.4,4.9,1.6,10.1,2.6,15.1c1.7,7.9,3.3,16.2,7.9,23.1c4.4,5.7,11.2,8.7,17.3,12.2c5.7,3.1,10.9,7.2,15.9,11.3
		c0.1,0.4,0.2,1.2,0.3,1.6c-1,7.3-4.7,14-5.2,21.5c-1.1,7.2,0.8,14.8,5.4,20.6c1.9,2.2,4,4,6,6.1c4.5,5.1,8.8,10.5,11.5,16.8
		c6.6,16,10.4,33,16.2,49.3c1.9,5.3,3.6,10.7,5.7,16h-8.8c-5.5-12.1-9.6-24.8-14.9-37.1c-3.6-8.3-6.7-16.9-10.7-25.1
		c-4.4-8.9-13-14.9-17.1-24c-3.1-6.5-3.5-14-2.5-21.1c1.4-8.2,5.5-15.5,8.4-23.2c-8.1-2.3-16.8-2.9-24.5-6.7
		c-7.2-3.2-13.5-8.7-16.6-16.1c-4.8-11.3-6.6-23.7-5.8-35.8c-16.9,2.3-34.1,4.7-49.9,11.4c-17.3,7.1-34,16.4-47.3,29.7
		c-4,3.7-7.2,8.1-9.4,13.1c-1.9,0.6-3.9,0.7-5.9,0.4c-4.1-7.6-9.8-14.2-13.2-22.2c-3.2-7.4-5.8-15.6-3.8-23.7
		c1.9-7,6.3-13.1,10.9-18.6c8.7-10.2,18.6-19.3,28.2-28.7c-24.8,7.9-51.1,13.4-73.2,27.9c-8.7,5.7-16.2,13.1-25.5,17.7
		c-16.3,8.2-33.6,14-50.2,21.5c-20.3,8.4-41.2,16.3-58.8,29.9c-10.8,8.8-21.2,18.1-30.5,28.6c-10.3,11.3-21.2,22-30.7,34v-20.5
		c6.2-7.1,13-13.7,19.3-20.7c10.5-12,22.4-22.7,34.9-32.6c22.2-16.8,49-25.6,74.4-36.1c14.3-5.8,29.3-10.6,42.5-18.8
		c8.9-6.2,17.3-13.3,27.1-18.4c24-12.8,51.2-16.6,77-24.2c4.1-1.2,8.4-2,12.2-4.2c22-18.2,46.4-33.1,70.9-47.6
		c2.7-1.6,5.5-3,7.7-5.3c0.5-3.8-0.1-7.6,0.3-11.3c0.9-4.7,2.4-9.4,5.3-13.3c4.2-5.6,10.3-9.1,16-12.9c-0.1-2.2-0.2-4.4-0.2-6.6
		c-0.1-4.1-0.2-8.2-0.4-12.3c0-7.8,0-15.5-0.3-23.3c-0.1-4.3-2.1-8.2-3.8-12c-3-6.7-6.1-13.5-8.3-20.5c-2.8-9.1-4.2-18.6-4.9-28.2
		c-0.4-5.7-0.9-11.5-1.4-17.2c-6.4,2.2-13.8,1.7-19.2-2.7c-8.1-6.3-10.8-16.5-14.8-25.4c-3.7-8.2-7.7-16.3-10.9-24.8
		c-5.9-15.5-11.3-31.3-12.9-47.9c-0.5-5.8-1-11.8,0.8-17.5c3.1-9.9,11.7-17.8,21.7-20.5c6.5-1.7,13.2-0.4,19.3,2
		c-3.2-11.4-5.1-23.1-7.6-34.6c-3.3-11.7-5.2-23.8-8.9-35.4c-1.7-5.7-4.4-11.3-4.6-17.4c-0.2-4,3.1-7.1,3.1-10.9
		c-2.3-7.3-5.4-14.3-7.6-21.6c-6.1-19.3-14-38.6-14.5-59.1c-0.9-24,6.9-47.3,18-68.3c7.7-15.4,17.5-29.8,29.4-42.3
		c20.6-21.9,46.6-37.7,73.2-51.3C449.2,24.4,466.4,18.6,483.7,13.6 M531,16.8c-14.8,1.5-29.6,3.2-43.9,7.5
		c-17.8,5.3-35.4,11.3-51.9,19.9c-12.5,6.5-24.8,13.6-36.4,21.5c-4.9,3.5-10,7-14.2,11.3c-5.1,2.7-8.6,7.4-12.7,11.3
		c-17.1,16.9-29.6,37.9-39.2,59.9c-5.9,15-10.3,30.8-9.9,47c0.2,15.6,4.2,30.9,8.8,45.7c2.1,15,7.4,29.2,11.2,43.8c3-0.9,6-1.9,9-3
		c-0.1-8.2,0.6-16.5,2.4-24.6c3.7-19.8,10.5-39.3,21.9-56.1c7.6-10.8,16.4-20.9,26.6-29.3c20.7-18.7,46.1-31.8,73-38.7
		c22.4-5.9,45.7-8.1,68.8-7.9c37.5,0.9,75.9,8.2,108.1,28.3c11.9,7,22.4,16.1,32.6,25.4c5.8,5.5,10.8,11.7,15.7,18
		c13.3,17.6,21,38.9,25,60.4c1.8,8.1,2.5,16.3,2.4,24.6c3,1.1,6,2.1,9,3c3.8-14.6,9.1-28.9,11.2-43.8c4.8-15.5,9-31.5,8.8-47.8
		c-0.3-25.1-10.3-48.8-22.6-70.2c-9.3-16.4-21.7-30.8-35.6-43.5c-1.1-0.9-2.3-1.8-3.6-2.4c-6.9-6.7-15.1-12-23.1-17.2
		c-17.4-10.8-35.5-20.7-54.8-27.5c-15.9-5.7-32.1-11.1-49-13.2C556.1,17.5,543.5,15.5,531,16.8 M531.6,130.8
		c-19,0.5-37.6,4.9-56,9.7c-25,6.8-47.6,20.5-66.8,37.6c-9.8,8.1-18.2,17.8-25.5,28.2c-13.2,19.8-20.5,43-24.5,66.2
		c-1.2,2.6-1.7,5.5-2.3,8.3c3.4-0.6,7-0.8,10.3-2.2c10.7-1.5,21.3-3.4,32-4.9c28.2-3.6,56.8-6.9,85.3-4.7c8,0.6,15.6,4.1,21.9,9
		c2.1,1.4,4,3.5,6.7,3.8c15.8,1.5,31.7,1.8,47.5,0.6c3.9-0.5,8.4,0.3,11.5-2.6c6-4.7,12.7-8.9,20.4-10.2c8.6-1.4,17.3-1.1,26-1.2
		c21.2-0.1,42.2,2.8,63.2,5.3c10.7,1.6,21.3,3.5,32,4.9c3.2,1.4,6.8,1.7,10.3,2.2c-0.6-2.8-1.1-5.7-2.3-8.2
		c-2.8-16.5-7.3-32.7-14.3-47.9c-6.7-14.8-16.4-28.1-27.9-39.6c-10.1-9.4-20.7-18.3-32.4-25.6c-16.3-10.8-35-17.7-54-22
		C572.7,132.5,552.1,129.6,531.6,130.8 M437.8,276.3c-24.4,2-48.8,5-72.9,9.7c-6.9,1.4-13.9,2.5-20.5,4.9c-0.3,1.2-0.5,2.3-0.6,3.5
		c1.1,7.6,1.8,15.4,3.9,22.8c2.9-0.1,5.9-0.2,8.8-0.3c1.4,3.2,2.2,6.5,2.6,9.9c2,15.3,7.2,30,12.4,44.4c2.9,7.2,6.6,14.9,13.5,18.9
		c5.7,6.4,13.8,10.1,22.1,11.9c20.5,4.3,41.6,1.7,62.1-1.3c5.5-0.6,10.8-3.2,14-7.8c11-13.8,18.7-29.8,28.7-44.2
		c4.9-6.7,9.7-13.5,14.6-20.3c-1.5-1.5-3.4-2.8-4.2-4.8c-0.5-3.4,1.1-7.2,4.1-9c3.3-1.4,6.9-0.9,10.4-1c4.8,0.2,9.6-0.4,14.4,0.3
		c3.9,0.4,6.3,4.4,6.5,8c0.4,3-2.6,4.6-4.3,6.5c5.8,8.2,11.9,16.3,17.6,24.6c6,9.8,12.2,19.6,18.1,29.4c2.3,3.6,5,7,7.6,10.4
		c4.1,6.2,11.7,7.8,18.6,8.6c17.9,2.4,36.2,4.3,54.2,1.3c9.5-1.6,19-5.2,25.5-12.6c6.9-4.1,10.7-11.7,13.5-18.9
		c4.4-11.9,8.6-23.9,11.1-36.3c1.3-6,1.4-12.4,4-18c2.9,0.1,5.9,0.2,8.8,0.3c2-7.4,3.1-15.1,3.6-22.7c0.1-0.8,0.4-2.5,0.5-3.3
		c-4.9-1.5-9.7-3.5-14.9-3.7c-8-2.4-16.3-3.7-24.6-4.6c-3.4-1.1-7.1-1.3-10.7-1.8c-14-1.8-27.9-3.6-41.9-4.7
		c-13.7-1.3-27.5-0.9-41.2-0.8c-7.4,0-15.2,1.4-21.3,6c-3.3,1.3-6,4.1-9.5,4.9c-2.2,0.5-4.4,0.9-6.6,1.5c-10.3-1-20.8,0.5-31.2,0
		c-6.9,0.1-13.8-0.9-20.6,0c-2.5-0.6-5-1-7.4-1.7c-3.1-1.1-5.6-3.5-8.7-4.7c-6.1-4.6-13.8-6-21.3-6
		C463.8,275.6,450.8,275.2,437.8,276.3 M528.5,319.9c-0.3,1.1-0.7,2.3-1,3.5c1.8,0.6,3.6,1.2,5.3,1.9c-0.1,1.3-0.2,2.6-0.3,3.9
		c-4,5.6-8.5,10.8-11.5,17c-6.9,7.8-11.8,17.1-17.5,25.8c-6.2,8.9-10.8,19-18.7,26.6c-2.6,2.6-6,4.2-9.5,5.2
		c-10.7,2.9-21.8,3.9-32.8,5c-11.9,0.9-23.8,0-35.7-0.1c-6.4-1.4-12.8-3.1-19-5.3c-4.5-4.6-10.2-8-14.2-13.1
		c-7.3-8-10.2-18.6-13.6-28.6c-1.9-5.4-3.2-11.1-4.3-16.7c-0.2,11,1.3,21.9,3.4,32.6c1.3,3.9,5.5,7,3.8,11.5l-0.8-0.5
		c-4.8-2.2-8.4-6.2-13.3-8.3c-4.5-2.4-9.7-2.3-14.6-1.6c-7.9,3.6-14.3,11.2-14.5,20.1c-0.1,11.3,1.4,22.7,5.3,33.3
		c2,8.7,5.8,16.9,9,25.2c1,2.1,1.5,4.5,3.1,6.3c2.3,6.3,5,12.4,8.2,18.3c2.5,6.1,5.7,12.4,11.3,16.1c3.5,1.4,7.5,0.8,11.2,1.1
		c-0.3-3-0.5-6-0.8-9c-0.8-7.1-0.6-14.4-2.1-21.3c0-8.1-1.1-16.1-1.6-24.2c-0.5-6.2-0.6-12.5-1.6-18.7c0.7-4,0.4-8,0.9-12
		c1.1,0,3.2,0,4.2,0.1c1.5,4,2.9,8.2,3.2,12.6c2.3,25,5.4,50,8.2,75c2.3,19.5,2.4,39.5,8.3,58.4c3.9,12.1,7.1,24.4,12.5,36
		c2.7,6.2,7,11.9,8.1,18.8c-6.7-4.5-8.3-13.3-13.8-18.9c-0.4,8.8,0.7,17.5,1.7,26.2c1.6,13.2,2.6,26.4,3.8,39.7
		c0.9,9.9,1.1,19.9,2.9,29.7c0.3,12.3,2.3,24.4,4.5,36.5c1.9,10,4.2,20,8.9,29.1c1.9,3.6,5.5,5.8,8.7,8.1
		c16.8,13,37.6,19.1,57.5,25.8c24.6,7.5,50.8,8.6,76.3,7.2c14.4-1.2,28.9-3,42.6-7.7c19.4-6.5,39.5-12.6,55.9-25.3
		c3.4-2.5,7.2-4.9,9.1-8.8c3-6.2,5.2-12.9,6.7-19.6c3.2-14.9,6-30,6.4-45.3c0.8-4.3,1.3-8.6,1.6-12.9c1.1-15.4,2.5-30.8,4-46.1
		c1.2-12.1,3.4-24.3,2.8-36.5c-5.6,5.6-7.1,14.4-13.8,18.9c1-6.3,4.8-11.7,7.4-17.4c3.6-7.7,6.5-15.7,8.9-23.8
		c2.5-8.5,5.6-16.7,7.2-25.4c3-14.7,3.4-29.7,5.1-44.6c2.7-25,5.9-49.9,8.2-74.9c0.3-5.1,1.6-10.1,3.5-14.8c1.4,0.1,2.9,0.4,4.3,0.8
		c0.6,3.8,0,7.7,0.8,11.4c-0.9,5.6-1,11.4-1.4,17c-0.5,8.6-1.7,17.2-1.7,25.9c-1.5,7-1.3,14.2-2.1,21.3c-0.3,3-0.5,6-0.8,9
		c3.7-0.3,7.6,0.3,11.2-1.1c5.7-3.7,8.8-10.1,11.3-16.1c3.1-5.9,5.9-12,8.2-18.3c1.6-1.8,2.1-4.2,3.1-6.3c3.2-8.3,7-16.5,9-25.2
		c3.9-10.6,5.4-22,5.3-33.3c-0.2-8.9-6.6-16.6-14.5-20.1c-4.4-0.6-9-0.9-13.2,1c-5.5,2-9.5,6.4-14.7,8.9l-0.8,0.6
		c-1.8-4.5,2.5-7.6,3.8-11.5c2-10.7,3.5-21.7,3.4-32.6c-1.8,10.1-5.2,19.7-8.7,29.3c-2.4,6.5-5.9,12.7-10.7,17.7
		c-3.7,4.4-8.7,7.3-12.7,11.4c-6.2,2.2-12.6,3.9-19,5.3c-13.5,0.2-27,1.3-40.4-0.4c-10-1.1-20-2.1-29.7-5
		c-6.2-1.9-10.5-7.1-14.2-12.1c-4.2-5.5-7.2-11.7-11.1-17.3c-6.3-9.2-11.4-19.3-18.8-27.7c-3.1-6.2-7.6-11.4-11.5-17
		c-0.1-1.3-0.2-2.6-0.3-3.9c1.8-0.6,3.5-1.3,5.3-1.9c-0.3-1.2-0.6-2.3-1-3.5C543.8,319.7,536.2,319.7,528.5,319.9 M413.6,767.9
		c2.3,12.1,6.7,23.7,11.1,35.2c2.1,7.1,9.7,9.7,15.3,13.4c2.6,3.1,6.6,4.7,10,6.8c24.6,13.3,52.3,22.2,80.5,20.9
		c8.1-0.6,16.2,0,24.3,0.1c26.5,0.1,52.2-8.6,75.3-21c3.4-2.1,7.4-3.6,10-6.8c4.8-3.2,10.6-5.5,14-10.4c5.1-12.4,9.9-25,12.5-38.2
		c-8.2,5-15.7,11-23.6,16.5c-8.8,4.6-17.9,8.5-27.2,11.9c-11.6,4.5-23.4,8.6-35.8,10.2c-17.8,2.3-35.8,4.6-53.7,2.9
		c-11.3-1.1-22.6-2.1-33.7-4.3c-11.8-2.3-23-7-34.3-11.2c-7.2-2.7-14.2-6-21.1-9.5C429.3,778.9,421.7,772.9,413.6,767.9z"/>
	<path class="st0" d="M429.3,282.8c22.3-1.8,45-1.1,66.8,4c7.8,1.7,15.2,6.8,18.1,14.4c4.5,11.1,1.2,23.2-1.9,34.2
		c-3.2,11.3-9.3,21.4-14.6,31.8c-4.5,8.9-9.8,17.5-17,24.5c-3.7,3.7-8.6,6.3-13.9,6.6c-11.8,0.9-23.7,2-35.5,1.5
		c-10-0.4-20.1,0.3-30-1.7c-4.6-0.9-8.4-3.8-12.1-6.5c-18.3-22.2-25.4-53.3-19.1-81.3c0.9-4.1,2.7-8.1,5.8-11.1
		c6.1-5.9,14-9.5,22.2-11.7C408.4,285,418.8,283.8,429.3,282.8 M382.1,301.1c-5.6,4.7-8,12.2-8,19.3c-0.9,11.1-0.3,22.3,2,33.2
		c2.3,9.8,6.1,19.4,12.1,27.5c3,4.2,5.8,8.8,10.2,11.8c4.3,2.5,9.4,2.5,14.1,3c13.7,1.4,27.4,1.8,41.2,1.6c4.9-0.2,9.9-0.5,14.7-1.7
		c4.8-1.2,8.2-5.1,11.6-8.5c4.3-4.6,8.9-9.3,11.2-15.3c1.8-1.4,2.7-3.6,3.8-5.5c3-6.1,6.2-12.2,9.1-18.4
		c4.9-11.8,10.4-24.2,8.3-37.3c-1.2-6.4-4.7-12.8-10.6-15.9c-5.8-2.9-12.4-3.6-18.8-4.6c-7.7-1-15.3-2.1-23.1-1.9
		c-14.7,0.2-29.6-0.7-44.2,1.3C403.9,291.1,391.1,292.8,382.1,301.1z"/>
	<path class="st0" d="M590,285.4c26.2-4.9,53.3-4.4,79.6-0.3c11.8,1.9,24.1,5,33.3,13.2c3.6,3.1,6,7.4,6.9,12.1
		c1.5,7.3,2.5,14.7,2.4,22.1c-0.7,21.3-7.6,42.7-21.4,59.2c-3.9,3-8,5.9-13,6.7c-9.9,1.8-20.1,1.2-30.2,1.6
		c-11.2,0.4-22.4-0.7-33.6-1.5c-5.6-0.3-10.9-2.7-14.8-6.7c-11-10.7-17.1-25.1-24.2-38.4c-5.6-10.4-9-21.9-10.9-33.5
		c-1.3-8.6-0.3-18.3,5.7-25.1C574.8,288.8,582.7,286.8,590,285.4 M581.2,293.5c-7.7,2.4-12.3,10-13.6,17.6
		c-1.8,13,3.5,25.2,8.4,36.9c3,6.4,6.3,12.7,9.5,19.1c0.9,1.7,1.8,3.6,3.4,4.9c2.3,6,6.9,10.7,11.2,15.3c3.6,3.6,7.2,7.7,12.4,8.7
		c9.1,2,18.5,1.6,27.7,1.5c10.9-0.1,21.7-0.9,32.5-2.1c3.5-0.5,7.3-1,10.2-3.4c3.7-3,6.2-7.1,9-10.9c6-8.2,9.8-17.7,12.1-27.5
		c2.3-10.9,2.9-22.1,2-33.2c-0.1-6.4-1.8-13.1-6.4-17.7c-4.8-5.2-11.5-8.3-18.2-10.1c-22.1-5.4-44.9-4.3-67.5-4.2
		C602.9,289.4,591.8,290.2,581.2,293.5z"/>
	<path class="st0" d="M334.7,381c5.6,0.6,10.8,3,15.2,6.4c5,4.9,9.9,9.9,13.7,15.8c-0.5,0.7-1.5,2.2-2,3c-2.5-2-4.8-4-7.3-6.1
		c-5.5-5.2-11.1-11.7-19-13c-3.7,1.7-5,6.3-7.4,9.3c-0.1-2-0.3-4-0.3-6.1C328.6,386.3,331.6,383.4,334.7,381z"/>
	<path class="st0" d="M730.1,387.3c4.5-3.4,9.6-5.7,15.2-6.4c3.1,2.4,6.1,5.3,6.9,9.4c0,2-0.1,4-0.3,6.1c-2.5-3-3.7-7.7-7.4-9.3
		c-7.9,1.2-13.5,7.8-19,13c-2.4,2-4.8,4.1-7.3,6.1c-0.5-0.7-1.5-2.2-2-3C720.1,397.2,725.1,392.2,730.1,387.3z"/>
	<path class="st0" d="M496.9,398c1.4-0.4,2.9-0.8,4.3-1.2c-0.3,0.5-0.9,1.6-1.2,2.1c-5.7,4.9-12.1,10.8-11.9,18.9
		c-0.3,5.3,6.1,5.3,9.7,6.6c0,0.7,0,2.2,0,3c-2.6,0.3-5.3,1.1-8,0.6c-4.2-1.6-6-6.6-5.2-10.8C485.9,409.5,491.4,403.4,496.9,398z"/>
	<path class="st0" d="M578.8,396.9c1.4,0.4,2.9,0.8,4.3,1.2c4.4,4.5,9,9.2,11.1,15.2c1.8,4.2,2.1,9.7-1.4,13.2
		c-2.7,3.1-7.1,1.5-10.6,1.1c0-0.7,0-2.2,0-3c3-0.9,6.2-1.4,8.8-3.2c1.7-3,0.8-6.8-0.3-9.9c-2-5.3-6.6-8.8-10.6-12.5
		C579.8,398.4,579.2,397.4,578.8,396.9z"/>
	<path class="st0" d="M337.3,400.6c1.4-0.3,2.7-0.5,4.1-0.8c-0.4,10.7-4.9,20.9-4.5,31.6c0.2,4.4,2.2,8.4,4.4,12.2
		c4.1,6.9,7.6,14.1,11.8,21c-1,0.5-1.9,1-2.9,1.4c-4-3-6.3-7.5-9.4-11.2c-4.8-5.9-10.3-12-10.9-19.9
		C329,422.9,334.3,411.9,337.3,400.6z"/>
	<path class="st0" d="M738.6,399.8c1.3,0.3,2.7,0.5,4.1,0.8c3,10.9,7.9,21.6,7.5,33.1c-0.2,6.7-3.9,12.5-8.1,17.5
		c-4.3,5.1-7.9,10.9-12.8,15.5c-0.5-0.6-1.6-2-2.1-2.6c4.2-6.7,7.6-13.8,11.6-20.5c2.2-3.7,4.2-7.8,4.4-12.2
		C743.5,420.7,739,410.5,738.6,399.8z"/>
	<path class="st0" d="M485.4,436.1c3.6-1.1,7.4-0.9,11,0c6.1,1.4,12.3,0.6,18.4-0.1c4.7-0.6,9.1,1.6,13.7,1.7c1.8-0.9,3.4-2,5.2-3
		c0.1,0.9,0.4,2.6,0.5,3.4c-2.3,1.3-4.4,3-7,3.6c-3.9-0.5-7.3-3.1-11.3-3.1c-4.6,0-9.2,0.7-13.8,0.5c-4-0.1-7.9-0.8-11.9-0.3
		c-22.3,8.8-44.5,18.1-64.8,30.9c1.1,1.1,2.1,2.3,3.2,3.4c0.1,0.5,0.2,1.5,0.3,2c-0.7,2.3-3,4.7-1.8,7.3c2.5,5.9,5.4,11.8,9.2,17
		c2.1,4.3,7,5.4,11.3,6.2c-3.4-4.2-7.6-7.7-10.3-12.4c-1.7-3-1.8-6.5-1.9-9.9c1.4-0.9,2.8-1.7,4.3-2.5c2.5,0.9,5,1.9,7.6,2.7
		c6.5,2,13.4,1,20-0.3c11.7-2.4,23.3-5.5,34.9-8.4c6.7-1.6,13.6-4.7,20.5-2.5c8,2.6,16.5,2.2,24.8,1.9c6.6-0.2,12.9-4,19.6-2.2
		c14.4,3.6,28.7,7.5,43.2,10.7c7.4,1.5,15.2,3,22.6,0.8c2.6-0.8,5.1-1.8,7.6-2.7c1.4,0.8,2.9,1.6,4.3,2.5c-0.2,3.3-0.2,6.9-1.9,9.9
		c-2.7,4.7-6.9,8.3-10.3,12.5c4.3-0.9,9.2-1.9,11.3-6.2c3.8-5.3,6.7-11.1,9.2-17c1.2-2.6-1-5-1.7-7.3c0.1-0.5,0.2-1.5,0.2-2
		c1.1-1.2,2.1-2.3,3.2-3.4c-20.3-12.8-42.5-22.1-64.8-30.9c-3.9-0.5-7.9,0.2-11.9,0.3c-4.6,0.3-9.2-0.5-13.8-0.5
		c-4,0-7.4,2.6-11.3,3.1c-2.6-0.6-4.7-2.3-7-3.6c0.1-0.9,0.4-2.6,0.5-3.4c1.7,1,3.4,2,5.2,3c4.3-0.1,8.3-2.1,12.7-1.8
		c4.3,0.2,8.5,1.1,12.7,0.9c5.9,0,11.8-2.8,17.7-0.7c18.1,6,35.7,13.3,52.5,22.4c4.3,2.4,9,4.1,12.8,7.2c1.9,1.4,1.9,4,2.4,6.2
		c-0.3,0.3-1,0.8-1.3,1.1c-1.3,0.8-2.6,1.7-3.9,2.5c0.4,2.2,0.8,4.5,1.2,6.7c-0.8,1.6-1.5,3.2-2.3,4.9c-1.1,2.2-2.4,4.3-3.6,6.5
		c-3,4.8-6,9.7-9.1,14.5c-5.6-0.4-11.4,0.3-16.9-1.3c3.1-6.3,8-11.4,11.2-17.6c0.6-1.2,1.1-2.4,1.6-3.6c-6.1,1.8-12.4,3.3-18.8,2.6
		c-17.7-1.6-34.4-8.5-51.9-11.5c-7.1-1.1-13.9,1.7-21,1.5c-7.9-0.1-15.9,0.5-23.7-0.8c-4-0.7-8.1-1.3-12.1-0.7
		c-17.5,3-34.2,9.8-51.9,11.5c-6.4,0.7-12.7-0.8-18.8-2.6c0.5,1.2,1,2.4,1.6,3.6c3.2,6.2,8.1,11.3,11.2,17.6
		c-5.5,1.6-11.3,0.9-16.9,1.3c-3.1-4.8-6.1-9.7-9.1-14.5c-1.2-2.2-2.5-4.3-3.6-6.5c-0.8-1.6-1.6-3.2-2.3-4.9
		c0.4-2.2,0.8-4.5,1.2-6.7c-1.3-0.8-2.6-1.7-3.9-2.5c-0.3-0.3-1-0.8-1.3-1.1c0.4-2.2,0.4-4.7,2.4-6.2c3.8-3.1,8.5-4.9,12.8-7.2
		C449.7,449.5,467.3,442.1,485.4,436.1z"/>
	<path class="st0" d="M493.3,494.1c6.4,0.2,12.7,1.8,19,2.8c18.6,2.1,37.5,2.1,56.2-0.1c6-1,12-2.5,18.2-2.7c-4.2,3-9.1,4.9-14,6.5
		c2.3,1.3,4.6,2.6,6.9,3.8c3.6,2.1,7.6,3.7,10.7,6.6c1.2,1,1.7,3.7-0.1,4.3c-3,1.8-7,1.6-9.5,4.3c-2.4,2.4-5.1,4.6-7.3,7.2
		c-0.6,0.1-1.7,0.2-2.3,0.3c3.8-5.4,7.5-11.3,13.3-14.8c-3.4-1.8-6.9-3.4-10.3-5.3c-1.1-0.7-2.2-1.3-3.3-2c-2-1.2-4.2-2.2-6.5-2.6
		c-16.1,1.6-32.4,1.6-48.5,0c-2.3,0.4-4.5,1.4-6.5,2.6c-1.1,0.6-2.2,1.3-3.3,2c-3.4,1.8-6.8,3.5-10.3,5.3c5.8,3.6,9.5,9.4,13.3,14.8
		c-0.6-0.1-1.7-0.2-2.3-0.3c-2.7-2.9-5.6-5.5-8.4-8.2c-2.8-1.7-6.3-1.9-9.1-3.6c-0.3-1.1-0.9-2.5,0.1-3.4c3-3.3,7.4-4.9,11.2-7.2
		c2.3-1.3,4.6-2.6,6.9-3.8C502.4,499,497.5,497.1,493.3,494.1z"/>
	<path class="st0" d="M454.7,515.6c1.1,0.3,2.1,0.6,3.2,0.9c-1.7,4.3-3.2,8.8-4.6,13.2c2.1,1.5,4.2,3,6.3,4.6
		c1.6,2.7,2.9,5.5,4.3,8.3c1,1.8,2,3.8,3.6,5.1c2.6,0,5.2-0.9,7.6-1.9c4.2-1.8,7.9-4.5,12.3-5.8c3.5-0.4,6.8,1.3,10.1,2
		c2.3-3.5,4.8-6.9,6.9-10.4c1.2,0.3,2.3,0.5,3.5,0.8c-2.1,3-3.8,6.2-5.2,9.5c-1.8,1.1-3.7,2.4-5.9,2.7c-2.6-0.3-4.9-1.6-7.3-2.5
		c-4.1-0.6-7.5,2.3-11,3.9c-3.9,1.8-8.3,4.2-12.8,3.2c-4.7-1.9-6.2-7.2-9.3-10.7c-2.4-3-6.6-4.4-8.3-7.9c-0.3-3.8,2.3-7.1,4-10.4
		C452.8,518.6,453.8,517.1,454.7,515.6z"/>
	<path class="st0" d="M622.1,516.5c1-0.4,2.1-0.7,3.2-0.9c0.9,1.5,1.9,3.1,2.8,4.7c1.7,3.3,4.2,6.5,4,10.4c-2.1,3.9-6.9,5.3-9.2,9.1
		c-2.8,3.4-4.5,8.6-9.2,9.8c-4.8,0.5-9.2-2-13.4-4.1c-3-1.5-6.1-3.8-9.6-3.2c-2.4,0.9-4.8,2.2-7.3,2.5c-2.2-0.4-4-1.6-5.9-2.7
		c-1.5-3.3-3.1-6.6-5.2-9.5c1.2-0.3,2.3-0.6,3.5-0.8c2.1,3.6,4.6,6.9,6.9,10.4c3.3-0.8,6.6-2.4,10.1-2c4.4,1.3,8.2,4,12.3,5.8
		c2.4,1,4.9,1.9,7.6,1.9c1.6-1.3,2.6-3.3,3.6-5.1c1.3-2.8,2.7-5.6,4.3-8.3c2-1.6,4.2-3.1,6.3-4.6
		C625.2,525.3,623.8,520.8,622.1,516.5z"/>
	<path class="st0" d="M435.8,523.3l1,0c1.2,1.9,1.9,4,2.6,6c-1,1.7-2,3.4-2.8,5.2c-4.6,10.6-10.2,20.8-15.9,30.9
		c-0.3,0.5-0.9,1.4-1.2,1.9c-1.2,1.8-2.4,3.7-3.5,5.6c4.4,2.9,10.6,5.6,10.9,11.7c0.2,6.5-1.1,13-1.6,19.5
		c4.3,2.6,8.5,5.9,10.6,10.7c3.5,7.8,5.4,16.8,11.6,23.1c3.1,1.8,6.8,1.6,10.2,2.6c5.9,1.4,10.5,5.5,15.1,9.1c1.4,1,2.8,2.5,4.7,2.2
		c5.5-0.3,10.9-2.4,16.4-1.1c5.7,1.4,10.4,5.2,15.6,7.6c3.4,1.9,7.1-0.4,10.5-0.9c6.7-1.9,13.2,1.4,19.9,1.7
		c6.6-0.4,13.2-3.6,19.9-1.7c3.4,0.5,7.1,2.8,10.5,0.9c5.3-2.4,9.9-6.2,15.6-7.6c5.5-1.3,10.9,0.8,16.4,1.1c1.9,0.3,3.3-1.2,4.7-2.2
		c4.6-3.6,9.2-7.7,15.1-9.1c3.3-1,7.1-0.9,10.2-2.6c6.2-6.3,8.1-15.3,11.7-23.1c2-4.8,6.3-8,10.6-10.7c-0.5-6.5-1.8-13-1.6-19.5
		c0.3-6.1,6.5-8.8,10.9-11.7c-1.1-1.9-2.3-3.8-3.5-5.6c-0.3-0.5-0.9-1.4-1.2-1.8c-5.7-10.1-11.3-20.2-15.9-30.9
		c-0.8-1.8-1.8-3.5-2.8-5.2c0.7-2.1,1.5-4.2,2.6-6l1,0c1.3,2.8,2.6,5.6,4.1,8.4c5.6,10.5,12.3,20.3,18.6,30.4
		c2.1,3.6,4.7,7.1,5.7,11.2c0.6,2.6-0.9,4.9-1.8,7.2c-2.7,1.1-5.5,2.1-7.8,3.8c-1.1,5.1,0.5,10.3,0.8,15.4c-0.3,2.8-0.2,5.7-1.3,8.3
		c-2.8,3.8-8.1,5.2-10.3,9.6c-3.9,8.1-3.7,18-9.6,25.3c-4.3,5.3-11.6,5.5-17.5,7.9c-6.5,2.5-10.5,8.9-17,11.3
		c-6.6,1.9-12.8-2.6-19.4-2.2c-6.8,2.3-12,8.2-19.3,9.1c-5.3,0.3-10-3.7-15.3-2.8c-4.7,0.7-9.3,2.6-14.2,2.5
		c-4.9,0.1-9.4-1.8-14.2-2.5c-5.3-0.9-10,3.1-15.3,2.8c-7.3-0.9-12.5-6.9-19.3-9.1c-6.5-0.4-12.8,4-19.4,2.1
		c-6.5-2.4-10.5-8.8-17-11.3c-5.9-2.5-13.2-2.6-17.5-7.9c-5.9-7.2-5.7-17.1-9.6-25.3c-2.2-4.4-7.5-5.8-10.3-9.6
		c-1.1-2.6-1-5.5-1.3-8.3c0.3-5.1,1.8-10.3,0.8-15.4c-2.2-1.8-4.9-2.8-7.7-3.4c-1.1-2.7-2.8-5.5-1.7-8.5c1.3-4,3.8-7.4,5.9-11
		c6.2-9.8,12.8-19.5,18.2-29.7C433.2,528.9,434.5,526.1,435.8,523.3z"/>
</g>
<g id="_-cebba1ff" serif:id="#cebba1ff">
	<path class="st1" d="M531,16.8c12.5-1.3,25.1,0.7,37.5,2.3c16.9,2.2,33.1,7.6,49,13.2c19.3,6.8,37.4,16.8,54.8,27.5
		c8.1,5.2,16.2,10.5,23.1,17.2c-7.4-3-14.1-7.2-21.3-10.6C657.7,59,642.1,49.8,625,44c-19.5-6.5-39.4-12.5-59.8-15.1
		c-10.8-1.2-21.6-3.5-32.5-2.2c-16.9,1.9-33.8,4.1-50.2,8.8c-12.6,3.6-25.2,7.2-37.2,12.2c-12.5,5-24.2,11.8-36.4,17.3
		c-8.2,3.7-15.9,8.6-24.2,12c4.3-4.3,9.3-7.8,14.2-11.3c11.6-8,23.9-15,36.4-21.5c16.5-8.6,34.1-14.6,51.9-19.9
		C501.4,20,516.2,18.4,531,16.8z"/>
</g>
<g id="_-a68966ff" serif:id="#a68966ff">
	<path class="st2" d="M482.4,35.5c16.4-4.7,33.3-6.9,50.2-8.8c10.9-1.3,21.7,1,32.5,2.2c20.5,2.6,40.3,8.5,59.8,15.1
		c17.1,5.8,32.8,15,49.1,22.5c7.2,3.4,13.9,7.6,21.3,10.6c1.3,0.6,2.5,1.5,3.6,2.4c13.8,12.7,26.2,27.1,35.6,43.5
		c12.3,21.4,22.3,45.1,22.6,70.2c0.2,16.3-4,32.3-8.8,47.8c-1.6-19.7-3.9-39.6-11.5-58c-12.5-33.6-34.8-64-64.8-84
		C658,89.5,642.3,82.5,626.6,76c-17.9-7-36.2-13.3-55.1-16.6c-8.8-1.2-17.3-3.8-26.2-3.7c-7.5,0-15.1-0.4-22.4,1.2
		c-8.5,1.8-17.2,2.8-25.7,4.9c-15.2,3.5-30,8.8-44.5,14.6c-13.1,5.5-26.2,11.2-38.3,18.7c-27.9,16.8-50.2,42.4-64.2,71.8
		c-3.8,8-7.2,16.3-10,24.7c-5.3,16-7,32.8-8.5,49.5c-4.6-14.8-8.7-30.1-8.8-45.7c-0.3-16.2,4.1-32.1,9.9-47
		c9.5-22,22.1-43,39.2-59.9c4.1-3.9,7.7-8.6,12.7-11.3c8.4-3.4,16-8.3,24.2-12c12.2-5.6,23.9-12.4,36.4-17.3
		C457.3,42.7,469.9,39.2,482.4,35.5z"/>
</g>
<g id="_-7e694eff" serif:id="#7e694eff">
	<path class="st3" d="M522.9,56.9c7.4-1.6,14.9-1.2,22.4-1.2c8.9-0.1,17.4,2.6,26.2,3.7c19,3.2,37.3,9.5,55.1,16.6
		c15.7,6.5,31.4,13.5,45.4,23.1c30,20,52.3,50.3,64.8,84c7.6,18.4,9.9,38.3,11.5,58c-2.1,15-7.4,29.2-11.2,43.8c-3-0.9-6-1.9-9-3
		c0.1-8.2-0.6-16.5-2.4-24.6c-4-21.5-11.7-42.8-25-60.4c-4.9-6.3-9.9-12.5-15.7-18c-10.2-9.3-20.7-18.4-32.6-25.4
		c-32.2-20-70.6-27.4-108.1-28.3c-23.1-0.2-46.4,2-68.8,7.9c-26.9,6.9-52.3,20.1-73,38.7c-10.3,8.4-19,18.5-26.6,29.3
		c-11.4,16.8-18.2,36.3-21.9,56.1c-1.8,8.1-2.5,16.3-2.4,24.6c-3,1.1-6,2.1-9,3c-3.8-14.6-9.1-28.9-11.2-43.8
		c1.4-16.7,3.1-33.5,8.5-49.5c2.9-8.4,6.2-16.7,10-24.7c14-29.4,36.3-55,64.2-71.8c12.1-7.5,25.2-13.2,38.3-18.7
		c14.5-5.8,29.3-11,44.5-14.6C505.6,59.7,514.3,58.7,522.9,56.9z"/>
</g>
<g id="_-76543aff" serif:id="#76543aff">
	<path class="st4" d="M531.6,130.8c20.5-1.1,41.1,1.7,60.9,6.7c19,4.2,37.7,11.1,54,22c11.7,7.3,22.3,16.2,32.4,25.6
		c11.5,11.4,21.2,24.7,27.9,39.6c7,15.2,11.5,31.5,14.3,47.9c-4.6-8.4-8.2-17.3-14.2-24.8c-13.6-17.6-29.4-34.1-49.2-44.8
		c-0.4-0.2-1.2-0.7-1.6-1c-2.4-5.4-4-11.3-7.6-16.1c-2.4-3.3-6.2-5.3-9.9-6.9c-16.6-6.9-33.5-13.4-51-17.6
		c-13.2-3.3-26.8-5-40.3-6.3c-10.4-1.1-20.8,0.6-31.1,1.9c-22.5,2.9-44.3,9.5-65.2,18.1c-5.8,2.5-12.1,4.3-17.2,8.2
		c-5.5,4.8-7.3,12.3-10.2,18.8c-0.4,0.2-1.2,0.7-1.6,1c-20,10.8-35.9,27.6-49.7,45.4c-5.7,7.4-9.2,16.1-13.7,24.2
		c4-23.3,11.3-46.4,24.5-66.2c7.3-10.4,15.7-20.1,25.5-28.2c19.2-17.1,41.9-30.8,66.8-37.6C494,135.7,512.6,131.3,531.6,130.8z"/>
</g>
<g id="_-88756dff" serif:id="#88756dff">
	<path class="st5" d="M516.3,156.9c10.3-1.2,20.7-3,31.1-1.9c13.5,1.3,27.1,3,40.3,6.3c17.5,4.2,34.4,10.6,51,17.6
		c3.7,1.6,7.5,3.6,9.9,6.9c3.6,4.8,5.3,10.7,7.6,16.1c-15.8-8.6-33.2-13.9-50.5-18.5c-22.7-6.1-46.4-7.7-69.8-7.6
		c-11.1,0.7-22.3,0.5-33.3,2.2c-19.6,2.4-38.8,7.7-57.4,14.4c-7.3,2.8-14.7,5.7-21.5,9.6c2.9-6.5,4.6-14,10.2-18.8
		c5.1-3.9,11.3-5.7,17.2-8.2C472,166.4,493.8,159.8,516.3,156.9z"/>
</g>
<g id="_-b59b91ff" serif:id="#b59b91ff">
	<path class="st6" d="M502.6,178c11-1.7,22.2-1.6,33.3-2.2c23.4,0,47.1,1.6,69.8,7.6c17.3,4.6,34.7,10,50.5,18.5
		c0.4,0.2,1.2,0.7,1.6,1c-2.3,1.6-4.7,3.3-7.6,3.5c-6.8,0.8-13.6,0.2-20.3,0.9c2.2,5.7,8.2,7.7,12.8,10.8
		c11.1,7.1,22.8,13.4,32.9,22c3.2,2.8,4,7.1,4.9,11C667,243,653,235.4,638,230.2c-18.6-6.8-38.2-10.9-57.9-12.8
		c-13.3-1.3-26.7-3-40.1-2.8c-13.8-0.2-27.4,1.6-41.1,2.9c-20.5,2.1-40.7,6.6-60,13.9c-13.9,5.1-26.8,12.2-39.5,19.8
		c0.9-3.9,1.7-8.3,4.9-11.1c10.1-8.5,21.8-14.9,32.9-22c4.7-3,10.7-5.1,12.9-10.8c-6.8-0.7-13.6-0.2-20.4-0.9
		c-2.9-0.2-5.3-1.9-7.6-3.5c0.4-0.2,1.2-0.7,1.6-1c6.8-3.9,14.2-6.8,21.5-9.6C463.8,185.7,483,180.4,502.6,178z"/>
	<path class="st6" d="M379.1,433.3c-2.8-12.6-6.7-24.9-8.3-37.7c4.9,2.6,9.9,4.9,15,7c-1.3,7.9-0.5,15.9-0.1,23.9
		c0.6,9.7,1.4,19.4,2.9,29c2.2,13.9,3.7,27.9,5.5,41.8c-2-4.2-4.6-8.1-6.4-12.4C387.2,467.3,382.8,450.3,379.1,433.3z"/>
	<path class="st6" d="M694.2,402.6c5.1-2.2,10.1-4.4,15-7c-2.2,16.3-7.4,31.9-10.6,47.9c-2.8,13.6-6,27.3-6.3,41.3
		c-1.8,4.3-4.3,8.3-6.4,12.4c1.9-13.9,3.3-27.9,5.5-41.9c1.5-9.6,2.3-19.3,2.9-29C694.8,418.5,695.5,410.5,694.2,402.6z"/>
	<path class="st6" d="M386.7,403l1.1,0.4c6.2,2.2,12.6,3.9,19,5.3c25.4,6.5,52.8,4.9,77.4-4.4c-0.3,0.9-0.5,1.9-0.8,2.9
		c-0.5,0.4-1.6,1.1-2.2,1.5c-17.6,4.5-35.9,6.6-54.1,5.9C413,414,398.3,411.4,386.7,403z"/>
	<path class="st6" d="M673.2,408.6c6.4-1.4,12.8-3.1,19-5.3l1.1-0.4c-8.6,6.5-19.4,9.2-30,10.7c-21.6,2.2-43.6,0.2-64.6-5.2
		c-0.5-0.4-1.6-1.1-2.2-1.5c-0.3-1-0.5-1.9-0.8-2.9C620.4,413.5,647.8,415.1,673.2,408.6z"/>
	<path class="st6" d="M479.5,425.5c3,3.2,6.7,6.2,11.1,7.1c7.9,1.8,15.9-2.2,23.8-0.7c5,0.9,9.7,3.1,14,5.9c-4.6-0.1-9-2.4-13.7-1.7
		c-6.1,0.6-12.4,1.5-18.4,0.1c-3.6-0.9-7.4-1.1-11,0C482.8,433,480.6,429.4,479.5,425.5z"/>
	<path class="st6" d="M589.4,432.6c4.4-0.9,8.1-3.9,11.1-7.1c-1.1,4-3.3,7.5-5.8,10.7c-5.9-2.1-11.8,0.7-17.7,0.7
		c-4.3,0.1-8.5-0.7-12.7-0.9c-4.3-0.3-8.4,1.7-12.7,1.8c4.3-2.7,9-4.9,14-5.9C573.5,430.4,581.4,434.4,589.4,432.6z"/>
</g>
<g id="_-9d6f4dff" serif:id="#9d6f4dff">
	<path class="st7" d="M372.5,248.3c13.7-17.8,29.7-34.6,49.7-45.4c2.3,1.6,4.7,3.3,7.6,3.5c6.8,0.8,13.6,0.3,20.4,0.9
		c-2.2,5.7-8.2,7.7-12.9,10.8c-11.1,7.1-22.8,13.4-32.9,22c-3.3,2.7-4,7.2-4.9,11.1c-11.9,7.8-23.8,16.1-32.7,27.4
		c-3.2,1.4-6.8,1.7-10.3,2.2c0.6-2.8,1.1-5.7,2.3-8.3C363.3,264.4,366.8,255.7,372.5,248.3z"/>
	<path class="st7" d="M657.8,202.9c19.8,10.7,35.6,27.2,49.2,44.8c6,7.5,9.6,16.5,14.2,24.8c1.2,2.6,1.7,5.5,2.3,8.2
		c-3.4-0.6-7.1-0.8-10.3-2.2c-8.9-11.3-20.7-19.6-32.7-27.4c-1-3.9-1.7-8.3-4.9-11c-10.1-8.6-21.8-14.9-32.9-22
		c-4.7-3.1-10.7-5.1-12.8-10.8c6.8-0.7,13.6-0.1,20.3-0.9C653.1,206.2,655.5,204.6,657.8,202.9z"/>
	<path class="st7" d="M528.5,319.9c7.7-0.2,15.4-0.2,23.1,0c0.3,1.1,0.6,2.3,1,3.5c-1.8,0.6-3.6,1.2-5.3,1.9
		c0.1,1.3,0.2,2.6,0.3,3.9c-3.3-4.8-11.5-4.8-14.8,0c0.1-1.3,0.2-2.6,0.3-3.9c-1.8-0.6-3.6-1.3-5.3-1.9
		C527.8,322.2,528.1,321.1,528.5,319.9z"/>
	<path class="st7" d="M355.7,344.9c1.1,5.6,2.4,11.3,4.3,16.7c3.4,10,6.3,20.6,13.6,28.6c4,5.1,9.6,8.5,14.2,13.1l-1.1-0.4l-0.9-0.4
		c-5.1-2.2-10.1-4.4-15-7c-1.2-0.7-2.4-1.5-3.5-2.4c-1.5-1.4-2.8-2.9-4.5-4.1c1.8-4.5-2.5-7.6-3.8-11.5
		C357,366.8,355.5,355.9,355.7,344.9z"/>
	<path class="st7" d="M715.7,374.2c3.5-9.6,6.9-19.2,8.7-29.3c0.2,11-1.3,21.9-3.4,32.6c-1.3,3.9-5.5,7-3.8,11.5
		c-1.6,1.2-3,2.7-4.5,4.1c-1.1,0.9-2.3,1.7-3.5,2.4c-4.9,2.6-9.9,4.9-15,7l-0.9,0.4l-1.1,0.4c3.9-4.1,9-7,12.7-11.4
		C709.8,386.9,713.3,380.7,715.7,374.2z"/>
	<path class="st7" d="M503.5,371.9c5.7-8.7,10.7-18,17.5-25.8c-1.8,4.4-3.9,8.6-6.4,12.6c-7.9,12.5-14.4,25.8-20.1,39.5
		c0.6,0,1.8-0.1,2.4-0.2c-5.4,5.4-11,11.5-12.2,19.3c-0.8,4.1,1,9.2,5.2,10.8c2.6,0.5,5.3-0.2,8-0.6c0-0.7,0-2.2,0-3
		c-3.6-1.3-10.1-1.3-9.7-6.6c-0.2-8.2,6.2-14,11.9-18.9c-3.2,6.4-6.7,12.7-9.9,19.1c3.7,1.7,8,2.3,11.9,0.9c-0.3,2-0.5,4-0.8,6
		c6.2,0.4,12.4,0.4,18.5,1.6c3.7,0.7,7.5,1,11.2,0.7c-1.2-2.7-2.7-5.2-4.5-7.5c4.4,1.5,8.9,3.2,13.6,3.5c4.7-0.3,9.2-2,13.6-3.5
		c-1.9,2.3-3.3,4.8-4.6,7.5c6.5,0.7,12.9-1.4,19.4-1.8c3.5-0.2,6.9-0.4,10.4-0.6c-0.3-2-0.5-4-0.8-6c3.9,1.4,8.2,0.8,11.9-0.9
		c-3.1-6.5-6.7-12.7-9.9-19.1c4,3.7,8.6,7.3,10.6,12.5c1.2,3.1,2,6.8,0.3,9.9c-2.6,1.8-5.8,2.3-8.8,3.2c0,0.7,0,2.2,0,3
		c3.5,0.4,7.8,2,10.6-1.1c3.5-3.5,3.2-9,1.4-13.2c-2.2-6-6.7-10.7-11.1-15.2c0.6,0.1,1.8,0.1,2.4,0.2c-2.9-7.6-6.8-14.7-10.2-22.1
		c-4.9-10.3-12.2-19.4-16.4-30c7.4,8.4,12.5,18.5,18.8,27.7c3.9,5.6,6.9,11.9,11.1,17.3c3.7,5,8,10.2,14.2,12.1c9.6,3,19.7,4,29.7,5
		c13.4,1.7,27,0.5,40.4,0.4c-25.4,6.5-52.8,4.9-77.4-4.5c0.3,0.9,0.5,1.9,0.8,2.9c1.4,5.1,3.4,9.9,4.7,15.1
		c-0.2,1.1-0.5,2.2-0.8,3.3c-3,3.3-6.7,6.2-11.1,7.1c-7.9,1.8-15.9-2.2-23.8-0.7c-5,0.9-9.7,3.1-14,5.9c-1.8-0.9-3.5-2-5.2-3
		c-0.1,0.9-0.4,2.6-0.5,3.4c-3.9,0.1-7.8,0.1-11.8,0c-0.1-0.9-0.4-2.6-0.5-3.4c-1.7,1-3.4,2-5.2,3c-4.3-2.7-9-4.9-14-5.9
		c-8-1.5-15.9,2.5-23.8,0.7c-4.4-0.9-8.1-3.9-11.1-7.1c-0.3-1.1-0.6-2.2-0.8-3.3c1.2-5.1,3.2-10,4.7-15.1c0.3-1,0.5-1.9,0.8-2.9
		c-24.6,9.3-51.9,10.9-77.4,4.4c11.9,0.2,23.8,1,35.7,0.1c11-1.1,22.1-2.1,32.8-5c3.5-1,6.9-2.6,9.5-5.2
		C492.7,390.9,497.3,380.8,503.5,371.9z"/>
	<path class="st7" d="M328,396.4c2.5-3,3.7-7.7,7.4-9.3c7.9,1.3,13.5,7.8,19,13c-4.3-2.4-8.1-5.8-12.8-7.5
		c-5.2,0.3-7.6,5.8-11.4,8.5c-1.3-0.5-2.4-1.1-3.6-1.8c0.2-3,0.5-6,1.2-8.9C327.8,392.3,327.9,394.4,328,396.4z"/>
	<path class="st7" d="M725.6,400c5.5-5.2,11.1-11.7,19-13c3.7,1.6,4.9,6.3,7.4,9.3c0.1-2,0.3-4,0.3-6.1c0.7,2.9,1,5.9,1.2,8.9
		c-1.2,0.6-2.4,1.3-3.7,1.7c-3.8-2.7-6.2-8.2-11.4-8.5C733.7,394.2,729.9,397.6,725.6,400z"/>
	<path class="st7" d="M408.3,652.2c2,0.7,4.1,1.4,6.1,2.1l-0.2,0.9c-3,10.8-2.7,22.1-2.3,33.3c1,16.8,2,33.7,5.9,50.1
		c1.9,8.9,4.4,17.6,6.1,26.5c-3.2-2.4-6.8-4.5-8.7-8.1c-4.7-9.1-7-19.1-8.9-29.1c-2.3-12-4.3-24.2-4.5-36.5
		C401.7,678,403.8,664.7,408.3,652.2z"/>
	<path class="st7" d="M665.6,654.2c2-0.7,4.1-1.4,6.1-2.1c4.5,12.5,6.6,25.8,6.6,39.1c-0.4,15.3-3.2,30.4-6.4,45.3
		c-1.5,6.8-3.6,13.4-6.7,19.6c-1.9,4-5.7,6.3-9.1,8.8c2.8-14.5,7.3-28.7,9.2-43.4c1.4-11.3,2.2-22.7,2.8-34.1
		c0.4-10.8,0.6-21.9-2.3-32.4L665.6,654.2z"/>
</g>
<g id="_-eeccbeff" serif:id="#eeccbeff">
	<path class="st8" d="M498.9,217.5c13.7-1.4,27.3-3.1,41.1-2.9c13.4-0.2,26.8,1.5,40.1,2.8c19.7,2,39.2,6.1,57.9,12.8
		c15,5.2,29,12.8,42.6,20.9c-0.1,7.7,0.7,15.5,3.8,22.7c-0.8-0.1-2.4-0.2-3.1-0.2c-21-2.6-42-5.4-63.2-5.3c-8.7,0.1-17.4-0.2-26,1.2
		c-7.6,1.3-14.4,5.5-20.4,10.2c-3.2,2.8-7.6,2.1-11.5,2.6c-15.8,1.2-31.7,0.9-47.5-0.6c-2.7-0.3-4.6-2.4-6.7-3.8
		c-6.3-4.9-13.9-8.4-21.9-9c-28.5-2.2-57,1.1-85.3,4.7c-0.8,0.1-2.4,0.2-3.1,0.2c3.1-7.1,3.9-15,3.8-22.7
		c12.6-7.6,25.6-14.7,39.5-19.8C458.2,224.1,478.4,219.6,498.9,217.5z"/>
	<path class="st8" d="M527.7,340.2c3.8-2.8,7.5-6.3,12.3-7c4.8,0.7,8.5,4.2,12.3,7c5,3.6,6.5,9.9,9,15.2c4.1,8.8,7.4,17.9,9.6,27.3
		c1,4.1,1.1,8.4,2.5,12.4c1.8,4.8,6.5,7.7,8.7,12.3c1.6,3.4,1.9,7.1,2.4,10.8c-6-1.8-11.7-5.1-18.1-5.1c-5.7,0.1-11.5,1.3-16.6,4
		c-3.2,1.6-6.2,3.8-9.8,4.4c-3.6-0.6-6.6-2.8-9.8-4.4c-5.1-2.7-10.9-4-16.6-4c-6.4-0.1-12.1,3.3-18.1,5.1c0.4-3.7,0.7-7.4,2.4-10.8
		c2.1-4.6,6.9-7.4,8.7-12.3c1.4-4,1.5-8.3,2.5-12.4c2.2-9.4,5.6-18.5,9.6-27.3C521.2,350.1,522.7,343.8,527.7,340.2 M535.7,336.3
		c-2.5,8-2.2,16.4-3.2,24.6c-0.7,5.6-0.8,11.3-1,16.9c0.6,5.8-8.3,6-8.2,11.5c0.3,6.7,5.8,12.2,11.9,14.2c9.2,3.1,20-3.9,21.3-13.4
		c1.2-6.2-8.8-6.4-8.2-12.4c-0.2-5.6-0.3-11.3-1-16.9c-0.9-8.2-0.7-16.7-3.2-24.7c-1.4,0.7-2.8,1.3-4.3,2
		C538.6,337.6,537.1,337,535.7,336.3 M516.3,404.6c3.8,3.7,8.8,5.6,13.7,7.4c11.4,4,24.5,0.2,33.6-7.3c-8-0.1-15.7,2.2-23.7,2.6
		C532.1,406.8,524.3,404.5,516.3,404.6z"/>
	<path class="st8" d="M319.6,398.8c0.1-8.9,6.6-16.6,14.5-20.1c0.1,0.6,0.4,1.7,0.6,2.3c-3.1,2.4-6.1,5.3-6.9,9.4
		c-0.7,2.9-1,5.9-1.2,8.9c0.3,3.6,1.8,6.9,3.7,9.8c-2.5,7.5-4.5,15.2-5.3,23C321.1,421.5,319.5,410.1,319.6,398.8z"/>
	<path class="st8" d="M745.9,378.7c7.9,3.6,14.3,11.2,14.5,20.1c0.1,11.3-1.4,22.7-5.3,33.3c-0.7-6.6-2.2-13.1-4.3-19.4
		c-1.9-4.7,2.5-8.8,2.7-13.4c-0.2-3-0.5-6-1.2-8.9c-0.8-4-3.8-6.9-6.9-9.4C745.5,380.4,745.7,379.2,745.9,378.7z"/>
	<path class="st8" d="M349.9,387.3c3.7,2,7.2,4.4,10.4,7.2c1.1-1.3,2.1-2.6,3.2-3.9c2,4.3,2.9,9.1,3.7,13.7c0.2,3.2,0.1,6.3-0.3,9.5
		c-1.7-1-3.4-2-5.2-2.9c1.3-2.4,2.4-5.1,2-7.9C359.8,397.2,354.9,392.2,349.9,387.3z"/>
	<path class="st8" d="M719.6,394.5c3.1-2.9,6.7-5.2,10.5-7.1c-5,4.9-9.9,9.9-13.7,15.8c-0.5,2.8,0.7,5.5,2,7.9
		c-1.7,0.8-3.4,1.7-5.1,2.6c-0.4-3.1-0.5-6.2-0.4-9.3c0.8-4.7,1.6-9.4,3.7-13.7C717.6,391.9,718.6,393.2,719.6,394.5z"/>
	<path class="st8" d="M335.3,401c1-1.9,2.1-3.8,3.1-5.6c7.8,2.9,14.6,7.7,20.7,13.4c-0.4,0.3-1.3,0.8-1.8,1.1
		c-11.1,6.5-13,21.8-9.8,33.2c2.8,10.2,10.1,18.2,17.2,25.7c1.5,7,1.3,14.2,2.1,21.3c-4.3-0.3-8.8-0.4-12.9-2.2
		c-3.3-1.5-6.1-3.7-8.9-6c-3.1-5.9-5.9-12-8.2-18.3c6.7,3.5,11.8,10.7,20,10.6c-0.6-3.4-1.9-6.7-3.9-9.6c-4.2-6.8-7.7-14-11.8-21
		c-2.2-3.7-4.2-7.8-4.4-12.2c-0.5-10.8,4.1-21,4.5-31.6c-1.4,0.3-2.7,0.5-4.1,0.8C336.8,400.7,335.8,400.9,335.3,401z"/>
	<path class="st8" d="M720.9,408.7c6-5.7,12.9-10.5,20.7-13.4c1,1.9,2.1,3.7,3.1,5.6c-0.5-0.1-1.5-0.3-2-0.4
		c-1.4-0.3-2.7-0.5-4.1-0.8c0.4,10.7,4.9,20.9,4.5,31.6c-0.2,4.4-2.2,8.4-4.4,12.2c-4,6.8-7.4,13.9-11.6,20.5c-2.1,3-3.5,6.4-4.1,10
		c8.2,0.1,13.3-7.1,20-10.5c-2.3,6.3-5.1,12.4-8.2,18.3c-2.7,2.3-5.6,4.5-8.9,6c-4,1.8-8.6,1.9-12.9,2.2c0.8-7.1,0.6-14.4,2.1-21.3
		c7.2-7.4,14.4-15.5,17.2-25.7c2.6-9.1,1.7-19.4-3.4-27.4c-1.6-2.5-4-4.3-6.4-5.8C722.2,409.6,721.3,409,720.9,408.7z"/>
	<path class="st8" d="M385.7,426.4c-0.5-7.9-1.2-16,0.1-23.9l0.9,0.4c11.6,8.4,26.4,11,40.4,11.5c18.2,0.7,36.5-1.4,54.1-5.9
		c-13.2,10.7-28.9,17.7-43.6,26.1c-7.2,4.2-14.7,7.8-21.9,11.9c-4.6,2.7-9.4,6.4-10.2,12c-1.1,6.4,2.4,12.3,5.5,17.6
		c4.3,7.1,8,14.6,11.8,22c1.2,2.7,3.6,4.5,6.1,5.9c-0.3-3.5-0.6-7-1.3-10.5c3,4.8,6,9.7,9.1,14.5c5.6-0.4,11.4,0.3,16.9-1.3
		c-3.1-6.3-8-11.4-11.2-17.6c5.4,1.1,10.8,2.2,16.3,1.8c11.4-0.7,22.6-2.8,33.8-4.5c14.3-2,28.7-3,43.2-2.9
		c19.7-0.3,39.5,0.6,58.9,4c14.1,2,28.7,5.3,42.8,1.6c-3.2,6.2-8.1,11.3-11.2,17.6c5.5,1.6,11.3,0.9,16.9,1.3
		c3.1-4.8,6.1-9.7,9.1-14.5c-0.7,3.5-1,7-1.3,10.5c2.5-1.5,4.9-3.2,6.1-5.9c4-7.6,7.7-15.3,12.2-22.6c3.3-5.5,6.8-12,4.7-18.6
		c-2-6.4-8.4-9.6-13.8-12.6c-11.3-5.8-22.2-12.2-33.5-18.2c-9.7-5.2-19.4-10.6-28-17.6c21,5.3,43,7.4,64.6,5.2
		c10.5-1.6,21.3-4.2,30-10.7l0.9-0.4c1.3,7.9,0.5,15.9,0.1,23.9c-0.7,9.7-1.4,19.4-2.9,29c-2.2,13.9-3.7,27.9-5.5,41.9
		c-0.5,1.5-1,3-1.5,4.5c-2.6,3.5-5.1,7.1-8,10.3c-3.4,3.8-7.9,6.3-12.2,8.8c-6.5,1.8-13.2,2.5-19.9,2.4l-1,0c-2.1-2.4-4.1-5-7-6.5
		c-3.4-1.7-7.3-1.6-11-1.2c-1.1,0.3-2.1,0.6-3.2,0.9c-3.2,5.4-1.3,11.9-1.7,17.8c-1.6,2.7-3,5.5-4.3,8.3c-3.7,1.1-7.5,2.1-11.2,3.2
		c-4.2-1.8-8-4.5-12.3-5.8c-3.5-0.3-6.8,1.3-10.1,2c-2.3-3.5-4.8-6.9-6.9-10.4c-0.8-1.6-1.6-3.2-2.3-4.7c2.3-2.6,4.9-4.8,7.3-7.2
		c2.5-2.6,6.5-2.5,9.5-4.3c1.9-0.7,1.4-3.3,0.1-4.3c-3.1-2.9-7.1-4.5-10.7-6.6c6.7-3.2,14.6-4.9,19.8-10.7
		c-4.3-0.3-8.6-0.1-12.8,0.3c-6.1,0.2-12.1,1.7-18.2,2.7c-18.6,2.2-37.5,2.2-56.2,0.1c-6.3-1-12.6-2.6-19-2.8
		c-4.3-0.4-8.5-0.7-12.8-0.3c5.2,5.7,13.1,7.5,19.8,10.7c-3.8,2.2-8.1,3.9-11.2,7.2c-0.9,0.9-0.4,2.4-0.1,3.4
		c2.8,1.6,6.3,1.9,9.1,3.6c2.8,2.7,5.8,5.3,8.4,8.2c-0.7,1.6-1.5,3.2-2.3,4.7c-2.1,3.6-4.6,6.9-6.9,10.4c-3.3-0.8-6.6-2.4-10.1-2
		c-4.4,1.3-8.2,4-12.3,5.8c-3.7-1.1-7.5-2.2-11.2-3.2c-1.3-2.8-2.7-5.6-4.3-8.3c-0.3-5.9,1.6-12.4-1.7-17.8
		c-1.1-0.4-2.1-0.7-3.2-0.9c-3.9-0.4-8.2-0.5-11.7,1.6c-2.5,1.6-4.3,3.9-6.3,6.1l-1,0c-6.7,0.2-13.4-0.5-19.9-2.4
		c-4.4-2.5-8.9-5-12.2-8.8c-2.9-3.2-5.3-6.9-8-10.3c-0.5-1.5-1-3-1.5-4.5c-1.9-13.9-3.3-27.9-5.5-41.8
		C387.1,445.8,386.3,436.1,385.7,426.4 M431.8,418.3c-8.1,2-16,4.4-24,6.6c-5,1.6-10.1,2.8-14.8,5.3c-2.1,0.9-3.6,3.8-1.9,5.7
		c3.7,4.6,8.8,8.9,14.9,9.6c3.2-0.3,5.8-2.7,8.5-4.4c7.2-5.1,15-9.4,21.4-15.5c1.6-1.6,3.8-3.8,2.6-6.3
		C437.2,416.8,434,418,431.8,418.3 M642.6,418c-2.4,1.6-1.5,4.9,0.4,6.6c6.9,7,15.8,11.6,23.7,17.4c2.7,1.7,5.6,4.4,9.1,3.3
		c5.5-1.5,10.2-5.4,13.5-10c1.4-3-2-5.3-4.4-6.2c-10.3-4-21-6.5-31.6-9.6C649.8,418.7,646.2,417.4,642.6,418z"/>
	<path class="st8" d="M463.3,432.3c5.5-2.8,10.5-6.5,15.4-10.2c0.2,1.1,0.5,2.2,0.8,3.3c1.1,4,3.3,7.5,5.9,10.7
		c-18.1,6-35.7,13.3-52.5,22.4c-4.3,2.4-9,4.1-12.8,7.2c-1.9,1.4-1.9,4-2.4,6.2c-0.9-3.2-2.5-6.9-0.4-9.9c2.8-4,7.3-6.3,11.3-8.9
		C440.2,446.3,452.1,439.7,463.3,432.3z"/>
	<path class="st8" d="M601.3,422.1c4.9,3.7,9.9,7.4,15.4,10.2c9.2,6,18.6,11.5,28.1,16.9c5.9,3.5,12.1,6.6,17,11.5
		c3.2,3,1.8,7.6,0.6,11.2c-0.4-2.2-0.4-4.7-2.4-6.2c-3.8-3.1-8.5-4.9-12.8-7.2c-16.8-9-34.4-16.4-52.5-22.4
		c2.6-3.2,4.8-6.7,5.8-10.7C600.8,424.4,601.1,423.2,601.3,422.1z"/>
	<path class="st8" d="M421.7,482.2c-1.5-2.9-2.4-6-2.7-9.2c1.3,0.8,2.6,1.7,3.9,2.5C422.6,477.8,422.1,480,421.7,482.2z"/>
	<path class="st8" d="M657,475.5c1.3-0.8,2.6-1.7,3.9-2.5c-0.3,3.2-1.2,6.3-2.7,9.2C657.8,480,657.4,477.8,657,475.5z"/>
</g>
<g id="_-ce9265ff" serif:id="#ce9265ff">
	<path class="st9" d="M366.8,278.6c8.9-11.3,20.7-19.6,32.7-27.4c0.1,7.7-0.7,15.5-3.8,22.7c0.8-0.1,2.4-0.2,3.1-0.2
		C388.1,275.2,377.5,277.1,366.8,278.6z"/>
	<path class="st9" d="M680.6,251.2c11.9,7.8,23.8,16.1,32.7,27.4c-10.7-1.5-21.3-3.4-32-4.9c0.8,0.1,2.4,0.2,3.1,0.2
		C681.2,266.7,680.5,258.9,680.6,251.2z"/>
	<path class="st9" d="M532.6,329.1c3.3-4.8,11.5-4.8,14.8,0c4,5.6,8.5,10.8,11.5,17c4.2,10.7,11.5,19.7,16.4,30
		c3.4,7.4,7.3,14.5,10.2,22.1c-0.6,0-1.8-0.1-2.4-0.2c-1.4-0.4-2.9-0.8-4.3-1.2c0.3,0.5,0.9,1.6,1.2,2.1c3.2,6.4,6.7,12.7,9.9,19.1
		c-3.8,1.7-8,2.3-11.9,0.9c-3.4-1.4-6.8-3.2-10.6-3.4c-5-0.3-9.4,2.4-13.8,4.3c-4.4,1.5-8.9,3.2-13.6,3.5c-4.7-0.3-9.2-2-13.6-3.5
		c-4.4-1.9-8.8-4.6-13.8-4.3c-3.8,0.1-7.2,1.9-10.6,3.4c-4,1.4-8.2,0.8-11.9-0.9c3.2-6.5,6.7-12.7,9.9-19.1c0.3-0.5,0.9-1.6,1.2-2.1
		c-1.4,0.4-2.9,0.8-4.3,1.2c-0.6,0-1.8,0.1-2.4,0.2c5.7-13.6,12.3-26.9,20.1-39.5c2.6-4,4.7-8.2,6.4-12.6
		C524.1,340,528.6,334.7,532.6,329.1 M527.7,340.2c-5,3.6-6.5,9.9-9,15.2c-4.1,8.8-7.4,17.9-9.6,27.3c-1,4.1-1.1,8.4-2.5,12.4
		c-1.8,4.8-6.6,7.7-8.7,12.3c-1.6,3.4-2,7.1-2.4,10.8c6-1.8,11.7-5.1,18.1-5.1c5.7,0.1,11.5,1.3,16.6,4c3.2,1.6,6.2,3.8,9.8,4.4
		c3.6-0.6,6.6-2.8,9.8-4.4c5.1-2.7,10.8-4,16.6-4c6.4-0.1,12.1,3.3,18.1,5.1c-0.4-3.7-0.7-7.4-2.4-10.8c-2.1-4.6-6.9-7.4-8.7-12.3
		c-1.4-4-1.6-8.3-2.5-12.4c-2.2-9.4-5.6-18.5-9.6-27.3c-2.5-5.3-4-11.6-9-15.2c-3.8-2.8-7.5-6.3-12.3-7
		C535.2,333.9,531.5,337.4,527.7,340.2z"/>
	<path class="st9" d="M330.2,401c3.9-2.7,6.2-8.2,11.4-8.5c4.7,1.7,8.5,5.1,12.8,7.5c2.4,2,4.8,4.1,7.3,6.1c0.5-0.7,1.5-2.2,2-3
		c0.5,2.8-0.7,5.4-2,7.9c-1.4-0.4-2.9-0.8-4.3-1.2c0.4-0.3,1.3-0.8,1.8-1.1c-6-5.7-12.9-10.5-20.7-13.4c-1.1,1.9-2.1,3.7-3.1,5.6
		c0.5-0.1,1.5-0.3,2-0.4c-3,11.2-8.3,22.3-7.4,34.2c0.5,7.9,6.1,14.1,10.9,19.9c3.2,3.7,5.5,8.2,9.4,11.2c1-0.4,2-0.9,2.9-1.4
		c2,2.9,3.3,6.1,3.9,9.6c-8.2,0.1-13.3-7.1-20-10.6c-1.6-1.8-2.1-4.2-3.1-6.3c-3.2-8.3-7-16.5-9-25.2c0.9-7.9,2.9-15.5,5.3-23
		c-2-2.9-3.4-6.3-3.7-9.8C327.8,399.9,329,400.5,330.2,401z"/>
	<path class="st9" d="M725.6,400c4.3-2.4,8.1-5.8,12.8-7.5c5.2,0.3,7.6,5.8,11.4,8.5c1.3-0.5,2.5-1.1,3.7-1.7
		c-0.2,4.7-4.6,8.7-2.7,13.4c2.1,6.3,3.6,12.8,4.3,19.4c-2,8.7-5.8,16.9-9,25.2c-1,2.1-1.5,4.5-3.1,6.3c-6.7,3.5-11.8,10.7-20,10.5
		c0.6-3.6,2-7,4.1-10c0.5,0.6,1.6,2,2.1,2.6c4.9-4.6,8.5-10.4,12.8-15.5c4.2-4.9,8-10.8,8.1-17.5c0.4-11.5-4.6-22.2-7.5-33.1
		c0.5,0.1,1.5,0.3,2,0.4c-1-1.9-2.1-3.8-3.1-5.6c-7.8,2.9-14.6,7.7-20.7,13.4c0.4,0.3,1.3,0.8,1.8,1.1c-1.4,0.4-2.9,0.8-4.3,1.2
		c-1.3-2.4-2.5-5.1-2-7.9c0.5,0.7,1.5,2.2,2,3C720.8,404.1,723.2,402,725.6,400z"/>
	<path class="st9" d="M516.3,404.6c8-0.1,15.7,2.2,23.7,2.6c7.9-0.4,15.7-2.7,23.7-2.6c-9.1,7.5-22.1,11.3-33.6,7.3
		C525.2,410.2,520.2,408.3,516.3,404.6z"/>
	<path class="st9" d="M481.2,408.6c0.5-0.4,1.6-1.1,2.2-1.5c-1.5,5.1-3.4,10-4.7,15.1c-4.9,3.7-9.9,7.3-15.4,10.2
		c-8.2,1.7-15.3,6.3-22.9,9.4c-8.6,3.6-17.6,7-24.6,13.4c-2.6,2.3-5,5.5-4.5,9.1c0.7,6.6,3.4,13,6.9,18.6c1.3,2.2,3.6,3.4,5.9,4.3
		c1.1,2.2,2.4,4.3,3.6,6.5c0.6,3.5,1,7,1.3,10.5c-2.5-1.5-4.9-3.2-6.1-5.9c-3.8-7.4-7.5-14.9-11.8-22c-3.1-5.3-6.6-11.2-5.5-17.6
		c0.8-5.6,5.6-9.3,10.2-12c7.2-4.1,14.7-7.7,21.9-11.9C452.3,426.2,468,419.3,481.2,408.6z"/>
	<path class="st9" d="M601.3,422.1c-1.2-5.1-3.2-10-4.7-15.1c0.5,0.4,1.6,1.1,2.2,1.5c8.6,7,18.2,12.4,28,17.6
		c11.2,5.9,22.2,12.4,33.5,18.2c5.4,3,11.8,6.2,13.8,12.6c2,6.6-1.5,13.1-4.7,18.6c-4.5,7.3-8.3,15-12.2,22.6
		c-1.2,2.7-3.6,4.5-6.1,5.9c0.3-3.5,0.6-7,1.3-10.5c1.2-2.2,2.5-4.3,3.6-6.5c2.3-0.9,4.6-2.1,5.9-4.3c3.5-5.6,6.2-11.9,6.9-18.6
		c0.4-3.7-2-6.8-4.5-9.1c-7-6.4-15.9-9.9-24.6-13.4c-7.7-3.1-14.8-7.7-23-9.4C611.2,429.5,606.2,425.8,601.3,422.1z"/>
	<path class="st9" d="M353.7,439.4c2.5-4.6,4.8-9.3,8-13.6c1,6.2,1,12.5,1.6,18.7c0.5,8.1,1.6,16.1,1.6,24.2
		c-7.2-7.4-14.4-15.5-17.2-25.7C349.7,442.1,352.6,441.7,353.7,439.4z"/>
	<path class="st9" d="M718.3,425.8c3.1,4.2,5.5,8.9,8,13.6c1.1,2.4,4,2.7,6.1,3.6c-2.8,10.2-10.1,18.2-17.2,25.7
		c0-8.6,1.2-17.2,1.7-25.9C717.4,437.2,717.4,431.5,718.3,425.8z"/>
	<path class="st9" d="M459.7,488.2c17.7-1.6,34.4-8.5,51.9-11.5c4-0.7,8.1,0,12.1,0.7c7.8,1.3,15.8,0.7,23.7,0.8
		c7.1,0.2,13.9-2.6,21-1.5c17.5,3,34.2,9.8,51.9,11.5c6.4,0.7,12.7-0.8,18.8-2.6c-0.5,1.2-1,2.4-1.6,3.6
		c-14.2,3.7-28.7,0.4-42.8-1.6c-19.4-3.4-39.2-4.4-58.9-4c-14.4-0.2-28.9,0.9-43.2,2.9c-11.2,1.7-22.5,3.8-33.8,4.5
		c-5.5,0.4-10.9-0.7-16.3-1.8c-0.6-1.2-1.1-2.4-1.6-3.6C447,487.4,453.3,489,459.7,488.2z"/>
	<path class="st9" d="M345.2,481.9c2.7,2.3,5.6,4.5,8.9,6c4,1.8,8.5,1.9,12.9,2.2c0.2,3,0.5,6,0.8,9c-3.7-0.3-7.6,0.3-11.2-1.1
		C350.8,494.3,347.7,487.9,345.2,481.9z"/>
	<path class="st9" d="M726,487.8c3.2-1.5,6.1-3.7,8.9-6c-2.5,6.1-5.7,12.4-11.3,16.1c-3.5,1.4-7.5,0.8-11.2,1.1c0.3-3,0.5-6,0.8-9
		C717.4,489.7,721.9,489.7,726,487.8z"/>
	<path class="st9" d="M480.5,493.8c4.3-0.3,8.5-0.1,12.8,0.3c4.2,3,9.1,4.9,14,6.5c-2.3,1.3-4.6,2.6-6.9,3.8
		C493.6,501.3,485.8,499.5,480.5,493.8z"/>
	<path class="st9" d="M586.7,494.1c4.3-0.4,8.5-0.7,12.8-0.3c-5.2,5.8-13.1,7.4-19.8,10.7c-2.3-1.3-4.6-2.6-6.9-3.8
		C577.6,499,582.4,497.2,586.7,494.1z"/>
	<path class="st9" d="M414.2,655.1c8.1,3.9,16.2,7.9,24.1,12.2c17.6,8.6,36.5,14.1,55.1,19.7c9.7,2.8,19.8,2.7,29.8,3.8
		c10.8,1.1,21.7,1.2,32.5,0.1c11.1-1.2,22.5-1.1,33.2-4.6c19.4-5.9,38.9-11.6,56.9-21.2c6.5-3.6,13.3-6.7,20-10
		c2.9,10.5,2.7,21.6,2.3,32.4c-0.6,11.4-1.4,22.8-2.8,34.1c-1.9,14.7-6.4,28.9-9.2,43.4c-16.4,12.7-36.5,18.8-55.9,25.3
		c-13.7,4.6-28.2,6.5-42.6,7.7c-25.5,1.4-51.7,0.4-76.3-7.2c-19.9-6.7-40.6-12.8-57.5-25.8c-1.7-8.9-4.1-17.7-6.1-26.5
		c-3.9-16.4-4.9-33.3-5.9-50.1C411.5,677.2,411.2,665.9,414.2,655.1 M421.2,669.3c-2.4,1-4.2,3.3-4.6,5.9
		c-0.9,5.6,0.1,11.3,0.9,16.8c4.4,24.7,10.4,49.3,19,72.9c0.7,2.7,3.6,3.7,5.9,4.6c11.7,3.7,23.4,7.7,34.6,12.7
		c8.8,3.2,18.1,5.2,27.2,7.7c19.8,4.9,40.7,5.1,60.8,2.2c10.3-1.7,20.4-4.9,30.5-7.5c6.6-1.6,12.6-5,19-7.3c7-2.5,14-5.2,21.1-7.2
		c2.8-1.1,6.5-1.8,7.5-5.1c8.7-24,14.7-48.8,19.2-73.9c0.8-5.5,1.8-11.3,0.6-16.8c-0.8-3.5-4.5-6.1-8.1-5.4
		c-7.1,1.3-12.4,6.5-18.4,10.1c-4,2.5-8.6,3.8-13.2,4.8c-12.8,2.9-25.3,7.1-38.3,9.1c-20.1,3.5-40.6,7-61,4.3
		c-15.5-1.7-30.8-4.2-45.9-7.8c-8.9-2.5-17.9-4.6-26.8-7c-7.7-1.9-13.4-7.7-20.3-11.4C428.1,669.7,424.6,668.2,421.2,669.3z"/>
</g>
<g id="_-bd9f73ff" serif:id="#bd9f73ff">
	<path class="st10" d="M437.8,276.3c13-1.1,26-0.7,39-0.6c7.4,0,15.2,1.4,21.3,6c-11-3.2-22.6-3.3-34-3.1c-15.1,0.5-30.2,2.1-45.3,3
		c-11.4,0.7-22.7,2.4-34,4.2c-13.9,1.8-27.6,4.8-41.1,8.6c0.1-1.2,0.3-2.4,0.6-3.5c6.6-2.5,13.6-3.5,20.5-4.9
		C388.9,281.3,413.3,278.3,437.8,276.3z"/>
	<path class="st10" d="M581.9,281.7c6.1-4.6,13.8-6,21.3-6c13.7-0.1,27.5-0.5,41.2,0.8c14,1.1,28,2.9,41.9,4.7
		c3.6,0.5,7.2,0.6,10.7,1.8c1.5,1,3,2.1,4.5,3.1c-0.9,0-2.7,0.1-3.6,0.2c-12.5-2-25.1-4-37.8-4.7c-20.7-1.2-41.4-4-62.2-2.6
		C592.5,279.2,587.2,280.3,581.9,281.7z"/>
	<path class="st10" d="M721.7,287.5c5.1,0.2,10,2.2,14.9,3.7c-0.1,0.8-0.4,2.5-0.5,3.3c-7.3-2.1-14.7-4.3-22.2-5.5
		C716.4,288.6,719,288,721.7,287.5z"/>
</g>
<g id="_-8c6334ff" serif:id="#8c6334ff">
	<path class="st11" d="M418.8,281.6c15.1-0.9,30.2-2.5,45.3-3c11.4-0.2,23-0.1,34,3.1c3.1,1.2,5.5,3.6,8.7,4.7
		c2.4,0.7,4.9,1.1,7.4,1.7c-0.5,0.2-1.3,0.5-1.8,0.7c9.2,1.4,18.5,0.7,27.7,0.9c9.2-0.2,18.5,0.5,27.7-0.9c-0.4-0.2-1.3-0.5-1.8-0.7
		c2.2-0.5,4.4-0.9,6.6-1.5c3.5-0.9,6.2-3.6,9.5-4.9c5.2-1.4,10.6-2.5,16-2.8c20.8-1.4,41.5,1.4,62.2,2.6c12.7,0.7,25.2,2.7,37.8,4.7
		c5.3,1,10.5,2.1,15.9,2.7c7.5,1.3,14.9,3.4,22.2,5.5c-0.5,7.7-1.6,15.3-3.6,22.7c-2.9-0.1-5.9-0.1-8.8-0.3c-2.6,5.7-2.7,12-4,18
		c-2.6,12.4-6.7,24.4-11.1,36.3c-2.9,7.2-6.7,14.8-13.5,18.9c-1.4,0.5-2.9,0.9-4.3,1.4c13.8-16.5,20.7-37.9,21.4-59.2
		c0.2-7.4-0.9-14.8-2.4-22.1c-0.9-4.7-3.3-9-6.9-12.1c-9.2-8.1-21.5-11.3-33.3-13.2c-26.3-4.1-53.3-4.6-79.6,0.3
		c-7.3,1.4-15.2,3.4-20.2,9.4c-6,6.7-7,16.5-5.7,25.1c1.9,11.6,5.3,23.1,10.9,33.5c7.1,13.3,13.2,27.7,24.2,38.4
		c-0.6,0.3-1.8,0.9-2.5,1.2c-2.6-3.4-5.3-6.8-7.6-10.4c-6-9.8-12.1-19.6-18.1-29.4c-5.7-8.3-11.8-16.4-17.6-24.6
		c1.7-1.9,4.8-3.5,4.3-6.5c-0.2-3.6-2.6-7.6-6.5-8c-4.8-0.7-9.6-0.1-14.4-0.3c-3.5,0.1-7.1-0.4-10.4,1c-3,1.8-4.6,5.6-4.1,9
		c0.8,2,2.8,3.2,4.2,4.8c-4.9,6.7-9.7,13.5-14.6,20.3c-10,14.4-17.8,30.4-28.7,44.2c-0.6-0.3-1.8-0.9-2.5-1.2
		c7.2-7,12.4-15.6,17-24.5c5.3-10.4,11.4-20.5,14.6-31.8c3.1-11,6.3-23.1,1.9-34.2c-3-7.7-10.3-12.7-18.1-14.4
		c-21.8-5.1-44.5-5.8-66.8-4c-10.4,1-20.9,2.2-31,4.9c-8.1,2.1-16.1,5.8-22.2,11.7c-3.1,2.9-5,6.9-5.8,11.1
		c-6.3,28,0.7,59.1,19.1,81.3c-1.4-0.5-2.9-0.9-4.3-1.4c-6.9-4.1-10.7-11.7-13.5-18.9c-5.3-14.4-10.4-29.1-12.4-44.4
		c-0.4-3.4-1.3-6.8-2.6-9.9c-2.9,0.1-5.9,0.2-8.8,0.3c-2.1-7.5-2.8-15.2-3.9-22.8c13.5-3.8,27.2-6.8,41.1-8.6
		C396.1,284,407.4,282.3,418.8,281.6z"/>
</g>
<g id="_-b08654ff" serif:id="#b08654ff">
	<path class="st12" d="M697,283c8.3,0.9,16.6,2.2,24.6,4.6c-2.6,0.4-5.2,1-7.8,1.4c-5.3-0.6-10.6-1.7-15.9-2.7
		c0.9-0.1,2.7-0.1,3.6-0.2C700,285,698.6,283.9,697,283z"/>
</g>
<g id="_-bb9d71ff" serif:id="#bb9d71ff">
	<path class="st13" d="M512.3,288.7c0.5-0.2,1.3-0.5,1.8-0.7c6.8-0.9,13.7,0.1,20.6,0c10.4,0.5,20.9-1,31.2,0
		c0.5,0.2,1.4,0.5,1.8,0.7c-9.2,1.4-18.5,0.7-27.7,0.9C530.8,289.5,521.5,290.1,512.3,288.7z"/>
</g>
<g id="_-feea89ff" serif:id="#feea89ff">
	<path class="st14" d="M382.1,301.1c9.1-8.3,21.8-10,33.6-11.5c14.7-2,29.5-1.1,44.2-1.3c7.7-0.2,15.4,0.9,23.1,1.9
		c6.4,1,13,1.7,18.8,4.6c6,3.1,9.4,9.5,10.6,15.9c-1.4,0.7-2.8,1.6-4.4,1.1c-6.2-1.2-11.6-4.9-17.7-6.5c-22.2-5.4-45.3-5.6-68.1-4.1
		c-10.9,1-21.6,3.9-31.6,8.2c-6.1,2.6-11.1,7-16.5,10.9C374.1,313.2,376.5,305.8,382.1,301.1z"/>
	<path class="st14" d="M581.2,293.5c10.5-3.3,21.7-4.1,32.6-5.1c22.5-0.1,45.4-1.3,67.5,4.2c6.8,1.8,13.4,4.9,18.2,10.1
		c4.6,4.6,6.3,11.3,6.4,17.7c-4.9-3.5-9.5-7.6-15.1-10.2c-7.1-3.4-14.6-5.6-22.2-7.3c-10.4-2.3-21.1-2.1-31.7-2.4
		c-16.1-0.3-32.3,1.2-48,5.1c-7.2,1.7-13.7,7.9-21.4,5.5C568.9,303.5,573.5,296,581.2,293.5z"/>
</g>
<g id="_-fcd64aff" serif:id="#fcd64aff">
	<path class="st15" d="M390.5,309.5c10-4.4,20.7-7.2,31.6-8.2c22.7-1.5,45.8-1.3,68.1,4.1c6.1,1.6,11.5,5.2,17.7,6.5
		c1.6,0.5,3.1-0.3,4.4-1.1c2.1,13.1-3.4,25.5-8.3,37.3c-4.9,0.3-9.7,0.5-14.5,1.5c-9.5,1.8-18.2,6.4-27.6,8.3
		c-6.6,1.3-13.5,1.6-20-0.1c-5.3-1.4-10.5-3.3-15.9-3.6c-12.3-1.1-24.5,2.4-36.8,1.9c-4.5-0.2-8.8-1.3-13.1-2.3
		c-2.3-10.9-2.9-22.1-2-33.2C379.4,316.6,384.4,312.1,390.5,309.5z"/>
	<path class="st15" d="M589,305.6c15.7-3.8,31.9-5.4,48-5.1c10.6,0.3,21.3,0.1,31.7,2.4c7.6,1.7,15.1,3.9,22.2,7.3
		c5.5,2.6,10.1,6.7,15.1,10.2c0.9,11.1,0.3,22.3-2,33.2c-4.3,1-8.7,2.2-13.1,2.3c-12.3,0.5-24.5-3-36.8-1.9
		c-5.5,0.4-10.7,2.2-16,3.6c-6.5,1.7-13.4,1.4-20,0.1c-9.5-1.8-18.2-6.4-27.6-8.3c-4.8-0.9-9.7-1.1-14.5-1.5
		c-4.9-11.7-10.2-23.9-8.4-36.9C575.3,313.5,581.9,307.3,589,305.6z"/>
</g>
<g id="_-f6e4dcff" serif:id="#f6e4dcff">
	<path class="st16" d="M535.7,336.3c1.4,0.7,2.9,1.3,4.3,2c1.4-0.7,2.8-1.3,4.3-2c2.5,8,2.2,16.4,3.2,24.7c0.6,5.6,0.7,11.3,1,16.9
		c-0.6,6,9.3,6.2,8.2,12.4c-1.3,9.5-12.2,16.5-21.3,13.4c-6.1-2-11.6-7.6-11.9-14.2c-0.1-5.5,8.8-5.7,8.2-11.5
		c0.2-5.6,0.3-11.3,1-16.9C533.5,352.7,533.2,344.3,535.7,336.3z"/>
	<path class="st16" d="M334.1,378.7c4.9-0.7,10.1-0.8,14.6,1.6c4.9,2.1,8.5,6.1,13.3,8.3c0.4,0.5,1.1,1.6,1.4,2.1
		c-1.1,1.3-2.1,2.6-3.2,3.9c-3.1-2.8-6.7-5.2-10.4-7.2c-4.5-3.4-9.6-5.7-15.2-6.4C334.5,380.4,334.3,379.2,334.1,378.7z"/>
	<path class="st16" d="M732.7,379.6c4.1-1.8,8.8-1.5,13.2-1c-0.1,0.6-0.4,1.7-0.6,2.3c-5.6,0.6-10.8,3-15.2,6.4
		c-3.8,1.9-7.3,4.3-10.5,7.1c-1-1.3-2.1-2.6-3.1-3.8c0.3-0.5,1.1-1.6,1.4-2.1C723.2,386.1,727.2,381.6,732.7,379.6z"/>
	<path class="st16" d="M431.8,418.3c2.2-0.3,5.5-1.4,6.8,1.1c1.2,2.5-1,4.7-2.6,6.3c-6.5,6-14.3,10.4-21.4,15.5
		c-2.7,1.7-5.2,4.1-8.5,4.4c-6.1-0.7-11.2-5-14.9-9.6c-1.8-1.9-0.2-4.8,1.9-5.7c4.6-2.5,9.8-3.7,14.8-5.3
		C415.8,422.7,423.7,420.3,431.8,418.3z"/>
	<path class="st16" d="M642.6,418c3.6-0.7,7.2,0.7,10.6,1.5c10.5,3.1,21.3,5.6,31.6,9.6c2.4,0.8,5.9,3.2,4.4,6.2
		c-3.3,4.6-8,8.4-13.5,10c-3.4,1.1-6.4-1.6-9.1-3.3c-7.9-5.8-16.8-10.4-23.7-17.4C641.1,423,640.2,419.6,642.6,418z"/>
</g>
<g id="_-bc6900ff" serif:id="#bc6900ff">
	<path class="st17" d="M489.5,349.5c4.8-0.9,9.7-1.1,14.5-1.5c-2.9,6.2-6.1,12.3-9.1,18.4c-1.1,2-2,4.1-3.8,5.5
		c-4.9,3.2-8.8,7.8-14.2,10.2c-7.2,2.8-14.9,0.1-22.4,0.7c-9.4,0.5-17.9,5.5-27.4,5.3c-5.9,0-11.3-2.4-16.8-4
		c-7.2-2.3-14.8-2.5-22.2-3c-6-8.2-9.8-17.7-12.1-27.5c4.3,1,8.7,2.2,13.1,2.3c12.3,0.5,24.5-3,36.8-1.9c5.5,0.4,10.7,2.2,15.9,3.6
		c6.5,1.7,13.4,1.4,20,0.1C471.4,355.9,480,351.3,489.5,349.5z"/>
	<path class="st17" d="M576,348c4.8,0.3,9.7,0.5,14.5,1.5c9.5,1.8,18.2,6.4,27.6,8.3c6.6,1.3,13.4,1.6,20-0.1
		c5.3-1.4,10.5-3.3,16-3.6c12.3-1.1,24.5,2.4,36.8,1.9c4.5-0.2,8.8-1.3,13.1-2.3c-2.3,9.8-6.1,19.4-12.1,27.5
		c-7.5,0.5-15.1,0.7-22.2,3c-5.8,1.8-11.6,4.3-17.8,4c-9.4-0.2-18-5.2-27.4-5.4c-7.6-0.3-15.7,2.4-22.8-1.3
		c-4.6-2.7-8.3-6.6-12.7-9.5c-1.6-1.3-2.5-3.1-3.4-4.9C582.3,360.8,579,354.5,576,348z"/>
</g>
<g id="_-8e4f00ff" serif:id="#8e4f00ff">
	<path class="st18" d="M476.9,382.2c5.4-2.4,9.3-7,14.2-10.2c-2.3,6-6.9,10.7-11.2,15.3c-3.4,3.4-6.8,7.2-11.6,8.5
		c-4.8,1.2-9.8,1.6-14.7,1.7c-13.7,0.2-27.5-0.2-41.2-1.6c-4.8-0.5-9.9-0.6-14.1-3c-4.4-2.9-7.1-7.6-10.2-11.8
		c7.5,0.5,15.1,0.7,22.2,3c5.5,1.7,10.9,4,16.8,4c9.4,0.1,18-4.9,27.4-5.3C462,382.3,469.7,385,476.9,382.2z"/>
	<path class="st18" d="M588.9,372c4.4,3,8.1,6.9,12.7,9.5c7.2,3.7,15.2,1,22.8,1.3c9.4,0.1,18,5.1,27.4,5.4c6.2,0.2,12-2.2,17.8-4
		c7.2-2.3,14.8-2.5,22.2-3c-2.7,3.8-5.3,7.9-9,10.9c-2.9,2.3-6.7,2.9-10.2,3.4c-10.8,1.1-21.6,2-32.5,2.1
		c-9.2,0.1-18.6,0.5-27.7-1.5c-5.2-1-8.9-5.1-12.4-8.7C595.8,382.7,591.2,378,588.9,372z"/>
</g>
<g id="_-b7998bff" serif:id="#b7998bff">
	<path class="st19" d="M362,388.5l0.8,0.5c1.6,1.2,3,2.7,4.5,4.1c-0.1,2.5-0.2,5-0.2,7.5c0,0.9,0,2.8,0,3.7
		c-0.8-4.7-1.6-9.4-3.7-13.7C363.1,390.1,362.4,389.1,362,388.5z"/>
	<path class="st19" d="M712.7,393.2c1.5-1.4,2.8-2.9,4.5-4.1l0.8-0.6c-0.3,0.5-1.1,1.6-1.4,2.1c-2.1,4.3-2.9,9.1-3.7,13.7
		c0-0.9,0-2.8,0-3.7C712.9,398.2,712.9,395.7,712.7,393.2z"/>
</g>
<g id="_-79471cff" serif:id="#79471cff">
	<path class="st20" d="M385,390.3c1.4,0.5,2.9,0.9,4.3,1.4c3.7,2.8,7.5,5.6,12.1,6.5c9.9,2,20,1.4,30,1.7
		c11.9,0.5,23.7-0.7,35.5-1.5c5.3-0.4,10.2-2.9,13.9-6.6c0.6,0.3,1.9,0.9,2.5,1.2c-3.3,4.6-8.5,7.2-14,7.8
		c-20.5,3-41.6,5.6-62.1,1.3C398.8,400.4,390.7,396.7,385,390.3z"/>
	<path class="st20" d="M690.7,391.7c1.4-0.5,2.9-0.9,4.3-1.4c-6.5,7.4-16.1,11-25.5,12.6c-18,3.1-36.3,1.1-54.2-1.3
		c-6.9-0.8-14.5-2.4-18.6-8.6c0.6-0.3,1.8-0.9,2.5-1.2c3.9,4,9.2,6.5,14.8,6.7c11.2,0.7,22.3,1.9,33.6,1.5
		c10.1-0.4,20.2,0.3,30.2-1.6C682.7,397.6,686.8,394.6,690.7,391.7z"/>
</g>
<g id="_-8b6f56ff" serif:id="#8b6f56ff">
	<path class="st21" d="M367.3,393.2c1.1,0.9,2.3,1.6,3.5,2.4c1.6,12.8,5.5,25.2,8.3,37.7c3.7,17,8.1,34.1,8.7,51.5
		c-0.7,2-1.4,4-2.1,6c-2.6-10.7-3.9-21.7-6.5-32.5c-3.6-15.3-6.3-30.8-8.1-46.5c-0.3-4-1.6-7.9-4-11.2
		C367.1,398.2,367.1,395.7,367.3,393.2z"/>
	<path class="st21" d="M709.2,395.6c1.2-0.7,2.4-1.5,3.5-2.4c0.1,2.5,0.2,5,0.2,7.5c-4.2,5.3-4,12.3-4.9,18.6
		c-1.9,15.2-5.1,30.3-8.5,45.2c-1.8,8.8-3,17.6-5.2,26.3c-0.6-2-1.4-4-2.1-6c0.3-14,3.6-27.7,6.3-41.3
		C701.8,427.4,707,411.8,709.2,395.6z"/>
</g>
<g id="_-835836ff" serif:id="#835836ff">
	<path class="st22" d="M367.1,400.7c2.4,3.3,3.7,7.2,4,11.2c1.8,15.6,4.5,31.2,8.1,46.5c2.6,10.7,3.9,21.7,6.5,32.5
		c2.5,11.4,4.5,22.8,6.1,34.4c3.3,16.6,6.1,33.5,13,49c0.7,2.3,1.5,4.6,2.4,6.8c3.5,5.9,7.2,11.9,9,18.7c0.3,2.8,0.2,5.7,1.3,8.3
		c2.8,3.8,8.1,5.2,10.3,9.6c3.9,8.1,3.7,18,9.6,25.3c4.3,5.3,11.6,5.5,17.5,7.9c6.5,2.5,10.5,8.9,17,11.3c6.6,1.9,12.8-2.6,19.4-2.1
		c6.8,2.3,12,8.2,19.3,9.1c5.3,0.3,9.9-3.7,15.3-2.8c4.7,0.7,9.3,2.6,14.2,2.5c4.9,0.1,9.4-1.8,14.2-2.5c5.3-0.9,10,3.1,15.3,2.8
		c7.3-0.9,12.5-6.9,19.3-9.1c6.5-0.4,12.8,4,19.4,2.2c6.5-2.4,10.5-8.8,17-11.3c5.9-2.5,13.2-2.6,17.5-7.9
		c5.9-7.2,5.7-17.1,9.6-25.3c2.2-4.4,7.5-5.8,10.3-9.6c1.1-2.6,1-5.5,1.3-8.3c1.7-6.7,5.3-12.6,8.8-18.4c1-2.3,1.8-4.7,2.6-7.1
		c6.9-15.6,9.7-32.5,13-49c1.5-11.5,3.6-23,6.1-34.4c2.1-8.7,3.3-17.6,5.2-26.3c3.4-15,6.7-30,8.5-45.2c0.9-6.3,0.8-13.3,4.9-18.6
		c0,0.9,0,2.8,0,3.7c-0.2,3.1,0,6.2,0.4,9.3c-1.9,4.7-3.2,9.7-3.5,14.8c-2.3,25-5.5,49.9-8.2,74.9c-1.7,14.9-2.1,29.9-5.1,44.6
		c-1.6,8.7-4.7,17-7.2,25.4c-2.4,8.2-5.3,16.2-8.9,23.8c-2.7,5.7-6.4,11-7.4,17.4c6.7-4.5,8.3-13.3,13.8-18.9
		c0.5,12.2-1.6,24.4-2.8,36.5c-1.5,15.4-2.8,30.7-4,46.1c-0.3,4.3-0.8,8.7-1.6,12.9c0-13.3-2.1-26.6-6.6-39.1
		c-2.1,0.7-4.1,1.4-6.1,2.1c-1.5-4.7-2.5-9.7-5.4-13.8c-3-1.5-6.8-1.8-9.9-0.4c-3.6,2.7-5.9,6.7-9.4,9.5c-11.9,9.7-27,13.6-41,19.1
		c-6.8,2.5-14.2,2.5-21.2,4.1c-9.6,2.1-19.3,3.9-29.1,4.9c-10.6,1-21.3,0.2-31.7-1.7c-9.2-1.4-18.2-4-27.5-4.9
		c-9.1-0.9-17.2-5.3-25.7-8c-8.3-2.7-16.2-6.7-23.4-11.6c-4-2.6-6.7-6.6-10-9.9c-2.9-3.2-8-2.8-11.6-1c-2.9,4-3.9,9.1-5.4,13.8
		c-2.1-0.7-4.1-1.4-6.1-2.1c-4.5,12.5-6.6,25.8-6.6,39.1c-1.8-9.8-2-19.8-2.9-29.7c-1.2-13.2-2.2-26.5-3.8-39.7
		c-1-8.7-2.1-17.4-1.7-26.2c5.6,5.6,7.2,14.4,13.8,18.9c-1.1-6.9-5.4-12.5-8.1-18.8c-5.4-11.5-8.6-23.9-12.5-36
		c-5.9-18.9-6-38.9-8.3-58.4c-2.8-25-5.9-50-8.2-75c-0.3-4.4-1.6-8.5-3.2-12.6c0.3-3.2,0.4-6.3,0.3-9.5
		C367.1,403.4,367.1,401.6,367.1,400.7z"/>
</g>
<g id="_-b27e57ff" serif:id="#b27e57ff">
	<path class="st23" d="M347.6,443c-3.2-11.5-1.3-26.7,9.8-33.2c1.4,0.3,2.9,0.7,4.3,1.2c1.8,0.9,3.5,1.9,5.2,2.9
		c-1.1,0-3.2,0-4.2-0.1c-0.5,4-0.2,8.1-0.9,12c-3.1,4.2-5.5,8.9-8,13.6C352.6,441.7,349.7,442.1,347.6,443z"/>
	<path class="st23" d="M713.2,413.6c1.7-0.9,3.4-1.8,5.1-2.6c1.4-0.4,2.8-0.8,4.3-1.2c2.4,1.6,4.9,3.3,6.4,5.8
		c5.1,8.1,6,18.3,3.4,27.4c-2.1-1-5-1.3-6.1-3.6c-2.5-4.6-4.9-9.3-8-13.6c-0.8-3.7-0.2-7.6-0.8-11.4
		C716.1,414,714.7,413.8,713.2,413.6z"/>
</g>
<g id="_-443326ff" serif:id="#443326ff">
	<path class="st24" d="M502,419c3.4-1.4,6.8-3.2,10.6-3.4c5-0.3,9.4,2.4,13.8,4.3c1.9,2.3,3.3,4.8,4.5,7.5c-3.8,0.3-7.5,0-11.2-0.7
		c-6.1-1.2-12.3-1.3-18.5-1.6C501.4,423,501.7,421,502,419z"/>
	<path class="st24" d="M553.6,419.9c4.4-1.9,8.8-4.6,13.8-4.3c3.8,0.1,7.2,1.9,10.6,3.4c0.3,2,0.5,4,0.8,6
		c-3.5,0.2-6.9,0.3-10.4,0.6c-6.5,0.4-12.8,2.5-19.4,1.8C550.3,424.7,551.8,422.2,553.6,419.9z"/>
</g>
<g id="_-9b6e4cff" serif:id="#9b6e4cff">
	<path class="st25" d="M440.4,441.7c7.7-3.1,14.8-7.7,22.9-9.4c-11.3,7.4-23.1,14-34.7,20.8c-4,2.6-8.4,4.9-11.3,8.9
		c-2.1,3-0.6,6.8,0.4,9.9c0.3,0.3,1,0.8,1.3,1.1c0.3,3.2,1.2,6.3,2.7,9.2c0.8,1.6,1.5,3.2,2.3,4.9c-2.3-0.9-4.6-2.1-5.9-4.3
		c-3.5-5.6-6.2-11.9-6.9-18.6c-0.4-3.7,2-6.8,4.5-9.1C422.8,448.7,431.8,445.2,440.4,441.7z"/>
	<path class="st25" d="M616.7,432.3c8.2,1.7,15.3,6.3,23,9.4c8.6,3.6,17.6,7,24.6,13.4c2.5,2.3,5,5.4,4.5,9.1
		c-0.7,6.6-3.4,13-6.9,18.6c-1.3,2.2-3.6,3.4-5.9,4.3c0.8-1.6,1.5-3.2,2.3-4.9c1.5-2.9,2.4-6,2.7-9.2c0.3-0.3,1-0.8,1.3-1.1
		c1.2-3.6,2.6-8.2-0.6-11.2c-4.9-4.9-11.1-8-17-11.5C635.3,443.8,625.8,438.3,616.7,432.3z"/>
</g>
<g id="_-af997dff" serif:id="#af997dff">
	<path class="st26" d="M490.2,438.9c4-0.5,7.9,0.2,11.9,0.3c4.6,0.3,9.2-0.5,13.8-0.5c4,0,7.4,2.6,11.3,3.1c2.6-0.6,4.7-2.3,7-3.6
		c3.9,0.1,7.8,0.1,11.8,0c2.3,1.3,4.4,3,7,3.6c3.9-0.5,7.3-3.1,11.3-3.1c4.6,0,9.2,0.7,13.8,0.5c4-0.1,7.9-0.8,11.9-0.3
		c-3.4,2.6-7,5-11.1,6.3c-0.5,0.2-1.5,0.5-2,0.7c0.2,1.9,0.4,3.8,0.5,5.7c-1.8-1-3.5-2-5.3-2.9c-3.6-1.8-7.5-2.5-11.3-3.2
		c-6.8-1.2-13.6-3.1-20.6-3.1c-7-0.1-13.8,1.9-20.6,3.1c-3.9,0.7-7.8,1.4-11.3,3.2c-1.8,0.9-3.5,1.9-5.3,2.9
		c0.2-1.9,0.3-3.8,0.5-5.7c-0.5-0.2-1.5-0.5-2-0.7C497.1,443.9,493.6,441.5,490.2,438.9z"/>
</g>
<g id="_-c8b08fff" serif:id="#c8b08fff">
	<path class="st27" d="M425.4,469.8c20.3-12.8,42.5-22.1,64.8-30.9c3.4,2.6,7,5,11.1,6.3c-3.6,4.2-7.6,8.1-12.4,11
		c0-3.3,0-6.6,0.1-9.9c-2.9,1.4-5.8,2.7-8.6,4.2c-0.9-0.7-1.9-1.4-2.8-2c-7.2,4.7-12.8,11.4-20.1,15.9c1.6-3.5,3.5-6.8,5.4-10.1
		c-6.8,3.9-12.4,9.5-18.6,14.2c1-2.6,2-5.2,3-7.8c-6.5,3.7-11.9,9-18.6,12.4C427.5,472.1,426.4,470.9,425.4,469.8z"/>
	<path class="st27" d="M589.8,438.9c22.3,8.8,44.5,18.1,64.8,30.9c-1.1,1.1-2.2,2.3-3.2,3.4c-6.6-3.5-12.1-8.7-18.6-12.4
		c1,2.6,2,5.2,3,7.8c-6.2-4.7-11.8-10.3-18.6-14.2c1.9,3.3,3.8,6.6,5.4,10.1c-7.3-4.5-12.9-11.2-20.1-16c-0.9,0.7-1.9,1.4-2.8,2
		c-2.9-1.4-5.7-2.8-8.6-4.2c0.1,3.3,0.1,6.6,0.1,9.9c-4.7-2.9-8.8-6.8-12.4-11C582.9,443.9,586.4,441.5,589.8,438.9z"/>
	<path class="st27" d="M465.9,471.6c2.6-4,4.9-8.3,8.5-11.4c0.8,0.5,1.6,1.1,2.4,1.7c-1.4,2.2-2.8,4.4-4.3,6.6
		c-2.6,3.6-5.8,7-10.3,8.1c-2.7-2-5.4-4-8.1-6c-1,2.5-1.9,5-2.8,7.5c-0.4,1-0.7,2.1-1.1,3.1c-0.9,0.5-1.9,1.1-2.8,1.7
		c1.6-5.9,3.2-11.8,6-17.3C457.9,467.1,462,469.2,465.9,471.6z"/>
	<path class="st27" d="M603.2,461.9c0.8-0.6,1.6-1.2,2.4-1.7c3.7,3.1,5.9,7.4,8.5,11.4c3.9-2.4,8-4.5,12.4-6.1
		c2.7,5.5,4.3,11.4,6,17.3c-0.9-0.6-1.9-1.1-2.8-1.6c-0.4-1-0.7-2.1-1.1-3.1c-0.9-2.5-1.9-5-2.8-7.5c-2.7,2-5.4,4-8.1,6
		c-4.4-1.1-7.7-4.6-10.3-8.2C606,466.3,604.5,464.1,603.2,461.9z"/>
</g>
<g id="_-785c3dff" serif:id="#785c3dff">
	<path class="st28" d="M519.4,445.6c6.8-1.2,13.6-3.2,20.6-3.1c7-0.1,13.8,1.9,20.6,3.1c3.9,0.7,7.8,1.4,11.3,3.2
		c-5.1,4.4-10.8,8.1-16.9,10.8c-1.6-1.6-3.1-3.3-4.6-4.9c-3.1,2.8-6.2,5.7-9.6,8.2h-1.8c-3.4-2.5-6.5-5.4-9.6-8.2
		c-1.6,1.6-3.1,3.2-4.6,4.9c-6.1-2.7-11.8-6.4-16.9-10.8C511.6,447,515.5,446.3,519.4,445.6z"/>
	<path class="st28" d="M505.1,471.6c5.8-1.7,11.9-2.7,18-1.8c6.7,1,13.4,2,20.1,1.6c6.7-0.1,13.3-2.2,20-1.9
		c6,0.2,11.7,2.2,17.4,3.7c16.1,4,32.6,5.7,48.9,8c0.9,0.5,1.9,1.1,2.8,1.6l0.4,0.8c-7.4,2.3-15.2,0.7-22.6-0.8
		c-14.5-3.2-28.8-7.2-43.2-10.7c-6.7-1.8-13,2-19.6,2.2c-8.3,0.2-16.8,0.6-24.8-1.9c-6.9-2.2-13.8,0.9-20.5,2.5
		c-11.6,2.9-23.1,6.1-34.9,8.4c-6.5,1.2-13.4,2.3-20,0.3l0.4-0.7c0.9-0.6,1.8-1.1,2.8-1.7C468.7,478.5,487.2,476.8,505.1,471.6z"/>
</g>
<g id="_-9d7950ff" serif:id="#9d7950ff">
	<path class="st29" d="M501.2,445.3c0.5,0.2,1.5,0.5,2,0.7c-0.2,1.9-0.4,3.8-0.5,5.7c1.7-1,3.5-2,5.3-2.9
		c5.1,4.4,10.8,8.1,16.9,10.8c1.5-1.6,3.1-3.3,4.6-4.9c3.1,2.8,6.2,5.7,9.6,8.2c-4.4-0.1-8.8-1.1-13.1-2c-1.3,1-2.7,2.1-4.1,2.9
		c-4.1-2.1-6.9-6.3-11.3-7.9c-5,2.7-8,7.8-10.9,12.5c7.5-0.4,15-1.1,22.5-0.6c11.9,0.7,23.8,0.7,35.7,0c7.5-0.5,15,0.2,22.5,0.6
		c-3-4.6-5.9-9.8-10.9-12.5c-4.4,1.6-7.2,5.8-11.3,7.9c-1.5-0.8-2.8-1.9-4.1-2.9c-4.3,1-8.7,1.9-13.1,2c3.4-2.5,6.4-5.4,9.6-8.2
		c1.6,1.6,3.1,3.2,4.6,4.9c6.1-2.7,11.8-6.4,16.9-10.8c1.8,0.9,3.5,1.9,5.3,2.9c-0.2-1.9-0.4-3.8-0.5-5.7c0.5-0.2,1.5-0.5,2-0.7
		c3.6,4.2,7.6,8.1,12.4,11c0-3.3-0.1-6.6-0.1-9.9c2.9,1.4,5.8,2.8,8.6,4.2c0.9-0.7,1.9-1.4,2.8-2c7.2,4.7,12.8,11.4,20.1,16
		c-1.6-3.5-3.5-6.8-5.4-10.1c6.8,3.9,12.4,9.5,18.6,14.2c-1-2.6-2-5.2-3-7.8c6.5,3.7,11.9,9,18.6,12.4c-0.1,0.5-0.2,1.5-0.2,2
		c-0.4,2.2-0.9,4.5-1,6.8c-0.6,0.2-1.9,0.6-2.5,0.8c-1.6-2.8-3.2-5.5-4.9-8.3c-1.7,1.6-3.4,3.3-5.1,4.9c0.7,0.3,2,1.1,2.6,1.4
		c-2.5,0.9-5.1,1.9-7.6,2.7l-0.4-0.8c-1.6-5.9-3.2-11.8-6-17.3c-4.3,1.6-8.4,3.7-12.4,6.1c-2.6-4-4.9-8.3-8.5-11.4
		c-0.8,0.5-1.6,1.1-2.4,1.7c-4.5,3.5-9.9,5.4-14.8,8c6.6,1.6,13.3,3,20.1,4.2c-0.3-1.9-0.6-3.8-1-5.6c2.6,3.6,5.8,7,10.3,8.2
		c3.6,0.7,7.2,1,10.9,1.4c0.4,1,0.7,2.1,1.1,3.1c-16.4-2.4-32.9-4-48.9-8c-5.8-1.4-11.5-3.5-17.4-3.7c-6.8-0.3-13.3,1.8-20,1.9
		c-6.8,0.4-13.5-0.6-20.1-1.6c-6.1-0.9-12.2,0.1-18,1.8c-17.9,5.1-36.4,6.9-54.7,9.6c0.3-1,0.7-2.1,1.1-3.1
		c3.6-0.4,7.3-0.7,10.9-1.4c4.4-1.1,7.7-4.6,10.3-8.1c-0.4,1.8-0.7,3.7-1,5.6c6.7-1.2,13.4-2.6,20.1-4.2c-5-2.6-10.4-4.5-14.8-8
		c-0.8-0.6-1.6-1.2-2.4-1.7c-3.7,3.1-6,7.4-8.5,11.4c-3.9-2.5-8-4.5-12.4-6.1c-2.7,5.5-4.4,11.4-6,17.3l-0.4,0.7
		c-2.6-0.8-5.1-1.8-7.6-2.7c0.7-0.3,2-1.1,2.6-1.4c-1.7-1.7-3.4-3.3-5.1-4.9c-1.6,2.8-3.3,5.5-4.9,8.3c-0.6-0.2-1.9-0.6-2.5-0.8
		c-0.1-2.3-0.6-4.6-1-6.8c-0.1-0.5-0.2-1.5-0.3-2c6.6-3.5,12.1-8.7,18.6-12.4c-1,2.6-2,5.2-3,7.8c6.2-4.7,11.8-10.3,18.6-14.2
		c-1.9,3.3-3.8,6.6-5.4,10.1c7.3-4.5,12.9-11.2,20.1-15.9c0.9,0.7,1.9,1.3,2.8,2c2.9-1.4,5.7-2.8,8.6-4.2c-0.1,3.3-0.1,6.6-0.1,9.9
		C493.6,453.4,497.6,449.5,501.2,445.3z"/>
	<path class="st29" d="M433.2,486.3c0.7-1,1.4-2,2.2-2.9c0.2,3.3,0.2,6.9,1.9,9.9c2.7,4.7,6.9,8.3,10.3,12.4
		c-4.3-0.8-9.2-1.9-11.3-6.2C435.3,495.1,434.3,490.7,433.2,486.3z"/>
	<path class="st29" d="M644.7,483.4c0.7,0.9,1.4,1.9,2.1,2.9c-1.1,4.4-2.1,8.8-3.1,13.2c-2.1,4.3-7,5.3-11.3,6.2
		c3.4-4.2,7.6-7.7,10.3-12.5C644.5,490.2,644.5,486.7,644.7,483.4z"/>
	<path class="st29" d="M509.2,505.1c2-1.2,4.1-2.2,6.5-2.6c-0.7,1.5-1.5,3-2.2,4.6c11.5,2.3,23.3,2.2,34.9,2
		c6.1-0.1,12.1-0.9,18.1-2c-0.8-1.5-1.5-3-2.2-4.6c2.3,0.4,4.5,1.4,6.5,2.6c-1.1,0.5-2.2,1-3.2,1.6c1.7,1.6,3.4,3.2,5.1,4.8
		c-3.8-0.7-8.1-2-11.7,0.2c-3.7,1.5-3.9,6.1-4.3,9.5c-2.2-0.6-4.4-1.3-6.6-1.9c-2.4,3.6-4.9,8.5-10.1,7.9c-5.1,0.7-7.7-4.3-10.1-7.9
		c-2.2,0.6-4.4,1.3-6.6,1.9c-0.4-3.4-0.6-8-4.3-9.5c-3.6-2.2-7.8-0.9-11.7-0.2c1.7-1.6,3.4-3.2,5.1-4.8
		C511.4,506.1,510.3,505.6,509.2,505.1z"/>
	<path class="st29" d="M517.4,514.2c2.2,2.8,2.2,6.4,2.5,9.8c-1.6-0.2-3.3-0.3-4.9-0.3C515.7,520.4,516.5,517.3,517.4,514.2z"/>
	<path class="st29" d="M560.1,524c0.3-3.4,0.3-7,2.5-9.8c0.9,3.1,1.7,6.3,2.4,9.4C563.4,523.7,561.7,523.8,560.1,524z"/>
</g>
<g id="_-ca9c67ff" serif:id="#ca9c67ff">
	<path class="st30" d="M499.7,468.3c3-4.6,5.9-9.8,10.9-12.5c4.4,1.6,7.2,5.8,11.3,7.9c1.5-0.8,2.8-1.9,4.1-2.9
		c4.3,1,8.7,1.9,13.1,2h1.8c4.4-0.1,8.8-1.1,13.1-2c1.3,1,2.7,2.1,4.1,2.9c4.1-2.1,6.9-6.3,11.3-7.9c5,2.7,8,7.8,10.9,12.5
		c-7.5-0.4-15-1.1-22.5-0.6c-11.9,0.7-23.8,0.7-35.7,0C514.6,467.2,507.1,467.9,499.7,468.3z"/>
	<path class="st30" d="M472.6,468.5c1.4-2.2,2.9-4.4,4.3-6.6c4.5,3.5,9.9,5.4,14.8,8c-6.6,1.6-13.3,3-20.1,4.2
		C471.9,472.2,472.2,470.3,472.6,468.5z"/>
	<path class="st30" d="M603.2,461.9c1.3,2.2,2.8,4.4,4.3,6.6c0.4,1.9,0.7,3.7,1,5.6c-6.7-1.2-13.4-2.6-20.1-4.2
		C593.3,467.3,598.7,465.4,603.2,461.9z"/>
	<path class="st30" d="M451.4,478.1c0.9-2.5,1.8-5,2.8-7.5c2.7,2,5.4,4,8.1,6C458.7,477.3,455.1,477.7,451.4,478.1z"/>
	<path class="st30" d="M617.7,476.6c2.7-2,5.4-4,8.1-6c1,2.5,1.9,5,2.8,7.5C624.9,477.7,621.3,477.3,617.7,476.6z"/>
	<path class="st30" d="M437.1,474.5c1.7,1.6,3.4,3.3,5.1,4.9c-0.7,0.4-2,1.1-2.6,1.4c-1.5,0.8-2.9,1.6-4.3,2.5c-0.7,1-1.4,2-2.2,2.9
		c-1.1-0.7-2.2-1.3-3.3-1.9c0-0.8-0.1-1.6-0.1-2.4c0.6,0.2,1.9,0.6,2.5,0.8C433.9,480,435.5,477.2,437.1,474.5z"/>
	<path class="st30" d="M637.8,479.4c1.7-1.7,3.4-3.3,5.1-4.9c1.6,2.8,3.3,5.5,4.9,8.3c0.6-0.2,1.8-0.6,2.5-0.8
		c0,0.8-0.1,1.6-0.1,2.4c-1.1,0.6-2.2,1.3-3.3,1.9c-0.7-1-1.4-2-2.1-2.9c-1.4-0.9-2.8-1.7-4.3-2.5
		C639.8,480.5,638.4,479.8,637.8,479.4z"/>
	<path class="st30" d="M495.7,512.3c3.4-1.8,6.9-3.4,10.3-5.3c-1.5,2.4-3,4.9-3.8,7.7c0.8,2.1,2.9,0.6,4.4,0.3
		c3.5-1.2,7.2-2.3,10.8-1c-0.9,3.1-1.7,6.3-2.4,9.4c1.6,0.1,3.3,0.2,4.9,0.3c0.3,0.2,0.9,0.5,1.1,0.6c0.4,0.2,1.1,0.6,1.5,0.8
		c0.3-1.4,0.5-2.8,0.8-4.2c2.2-0.6,4.4-1.3,6.6-1.9c2.4,3.6,4.9,8.5,10.1,7.9c5.1,0.7,7.7-4.3,10.1-7.9c2.2,0.6,4.4,1.3,6.6,1.9
		c0.2,1.4,0.5,2.8,0.8,4.2c0.4-0.2,1.1-0.6,1.5-0.8c0.3-0.2,0.8-0.5,1.1-0.6c1.6-0.2,3.3-0.3,4.9-0.3c-0.7-3.2-1.5-6.3-2.4-9.4
		c5.1-1.9,10.2,0.9,15.1,2.2c-0.5-3.3-1.6-6.6-3.6-9.3c3.4,1.8,6.8,3.5,10.3,5.3c-5.8,3.6-9.5,9.4-13.3,14.8
		c0.6-0.1,1.7-0.2,2.3-0.3c0.7,1.6,1.5,3.2,2.3,4.7c-1.2,0.3-2.3,0.5-3.5,0.8c-1.3-0.9-2.6-1.8-4-2.6c2,4.7,4.6,9.6,9.2,12.2
		c1.8,1.1,3.7,2.4,5.9,2.7c2.6-0.3,4.9-1.6,7.3-2.5c-0.3,1.6-0.7,3.3-1,4.9c-2.5-0.6-5-1.2-7.5-1.7c2.5,2.2,5.2,6.3,9,5.1
		c1.3-1.8,2.3-3.8,3.3-5.8c5.8,6,12,11.7,19.2,16c0.7-2.1,1.3-4.1,1.9-6.2c2.6,0.6,5.2,1.1,7.8,1.7c1.5-4.1,2.8-8.3,3.7-12.5
		c2.4,1,4.7,2,7.1,3c0.7-4.8,1.1-9.6,1.6-14.4c1.7,0.1,3.4,0.1,5.1,0.2c0.4,1.6,0.8,3.1,1.2,4.7c1.6,6.1,2.9,12.3,3.8,18.5
		c-4.2-0.9-8.3-2.7-12.6-2.4c-3.3,1.4-4.4,5.3-5.1,8.5c-1.6,9.4-0.2,19.1-3.1,28.2c-7.9-3.1-14.3-8.8-21.2-13.6
		c-7.9-5.6-15.4-12.2-24.5-15.7c-4.6-1.9-8.7,3-13.3,1.8c-3.6-0.7-7.3-1.6-11-2c-3.7-7.3-8-14.3-10.7-22.1c-1.5,3-2.7,6.1-4,9.2
		c-2-2.8-3.5-6-5-9.2c-2.6,7.8-7,14.7-10.6,22c-3.7,0.4-7.3,1.3-11,2c-4.6,1.2-8.7-3.7-13.3-1.8c-8.9,3.4-16.2,9.8-23.9,15.3
		c-7.1,4.9-13.7,10.8-21.8,14.1c-2.9-9.2-1.5-18.9-3.1-28.2c-0.7-3.2-1.8-7.1-5.1-8.5c-4.3-0.3-8.5,1.4-12.6,2.4
		c0.9-6.2,2.2-12.4,3.8-18.5c0.4-1.6,0.8-3.1,1.2-4.7c1.7-0.1,3.4-0.1,5.1-0.2c0.5,4.8,0.9,9.7,1.7,14.5c2.3-1.1,4.5-2.2,6.8-3.3
		c1.2,4.3,2.5,8.5,4,12.7c2.6-0.6,5.2-1.1,7.8-1.7c0.6,2.1,1.3,4.1,2,6.2c7.2-4.3,13.4-10,19.2-16c1.5,2,1.9,5.9,4.8,6.1
		c3.2-0.6,5.2-3.4,7.5-5.4c-2.5,0.5-5,1.1-7.5,1.7c-0.3-1.6-0.7-3.3-1-4.9c2.4,0.9,4.7,2.2,7.3,2.5c2.2-0.4,4-1.6,5.9-2.7
		c4.6-2.6,7.2-7.5,9.2-12.2c-1.4,0.9-2.7,1.7-4,2.6c-1.2-0.3-2.3-0.6-3.5-0.8c0.8-1.6,1.5-3.2,2.3-4.7c0.6,0.1,1.7,0.2,2.3,0.3
		C505.2,521.7,501.5,515.9,495.7,512.3z"/>
	<path class="st30" d="M443.1,517.2c3.5-2.1,7.8-2,11.7-1.6c-1,1.5-1.9,3.1-2.8,4.7c-1.9-1.1-3.8-2.3-5.6-3.4
		c-2.2,4.2-4.4,8.4-6.8,12.5c-0.7-2.1-1.5-4.2-2.6-6C438.7,521.1,440.6,518.8,443.1,517.2z"/>
	<path class="st30" d="M625.3,515.6c3.7-0.4,7.6-0.5,11,1.2c2.8,1.5,4.9,4.1,7,6.5c-1.2,1.9-1.9,4-2.6,6c-2.5-4.1-4.6-8.3-6.8-12.5
		c-1.9,1.1-3.8,2.2-5.6,3.4C627.1,518.6,626.2,517.1,625.3,515.6z"/>
	<path class="st30" d="M457.9,516.5c3.2,5.4,1.3,11.9,1.7,17.8c-2-1.6-4.2-3.1-6.3-4.6C454.8,525.3,456.2,520.8,457.9,516.5z"/>
	<path class="st30" d="M620.4,534.3c0.3-5.9-1.6-12.4,1.7-17.8c1.7,4.3,3.2,8.8,4.6,13.2C624.6,531.2,622.5,532.7,620.4,534.3z"/>
</g>
<g id="_-e3c7a2ff" serif:id="#e3c7a2ff">
	<path class="st31" d="M428.8,475.2c0.4,2.3,0.8,4.5,1,6.8c0,0.8,0.1,1.6,0.1,2.4c1.1,0.6,2.2,1.3,3.3,1.9c1.1,4.4,2.1,8.8,3.1,13.2
		c-3.8-5.2-6.7-11.1-9.2-17C425.9,479.9,428.1,477.5,428.8,475.2z"/>
	<path class="st31" d="M650.2,482c0.1-2.3,0.5-4.6,1-6.8c0.7,2.3,3,4.7,1.7,7.3c-2.5,5.9-5.4,11.8-9.2,17c1-4.4,2-8.8,3.1-13.2
		c1.1-0.6,2.2-1.3,3.3-1.9C650.1,483.6,650.2,482.8,650.2,482z"/>
	<path class="st31" d="M446.3,516.8c1.9,1.1,3.8,2.2,5.6,3.4c-1.7,3.3-4.3,6.5-4,10.4c1.8,3.5,5.9,4.9,8.3,7.9
		c3.2,3.5,4.7,8.8,9.3,10.7c4.5,1.1,8.8-1.3,12.8-3.2c3.5-1.6,6.9-4.6,11-3.9c0.3,1.6,0.7,3.3,1,4.9c2.5-0.6,5-1.2,7.5-1.7
		c-2.3,2-4.3,4.9-7.5,5.4c-2.9-0.3-3.3-4.1-4.8-6.1c-5.8,6-12,11.7-19.2,16c-0.7-2.1-1.3-4.1-2-6.2c-2.6,0.6-5.2,1.1-7.8,1.7
		c-1.6-4.2-2.8-8.4-4-12.7c-2.3,1.1-4.5,2.2-6.8,3.3c-0.7-4.8-1.1-9.6-1.7-14.5c-1.7,0.1-3.4,0.1-5.1,0.2c-0.4,1.6-0.8,3.1-1.2,4.7
		c-0.3-0.7-0.9-2-1.3-2.7c0.8-1.8,1.8-3.5,2.8-5.2C441.9,525.3,444,521,446.3,516.8z"/>
	<path class="st31" d="M628.1,520.2c1.9-1.1,3.8-2.3,5.6-3.4c2.2,4.2,4.4,8.4,6.8,12.5c1,1.7,2,3.4,2.8,5.2c-0.3,0.7-0.9,2-1.3,2.7
		c-0.4-1.6-0.8-3.1-1.2-4.7c-1.7-0.1-3.4-0.1-5.1-0.2c-0.5,4.8-0.9,9.6-1.6,14.4c-2.4-1-4.7-2-7.1-3c-1,4.3-2.2,8.4-3.7,12.5
		c-2.6-0.6-5.2-1.1-7.8-1.7c-0.6,2.1-1.3,4.1-1.9,6.2c-7.2-4.3-13.4-10-19.2-16c-1,2-2,4-3.3,5.8c-3.8,1.1-6.5-3-9-5.1
		c2.5,0.5,5,1.1,7.5,1.7c0.3-1.6,0.7-3.3,1-4.9c3.6-0.6,6.6,1.7,9.6,3.2c4.1,2,8.6,4.6,13.4,4.1c4.8-1.1,6.5-6.3,9.2-9.8
		c2.3-3.8,7.2-5.1,9.2-9.1C632.3,526.8,629.7,523.5,628.1,520.2z"/>
</g>
<g id="_-9a7e69ff" serif:id="#9a7e69ff">
	<path class="st32" d="M387.8,484.8c1.8,4.3,4.3,8.3,6.4,12.4c0.5,1.5,1,3,1.5,4.5c-2.2-2.1-4.5-4-6.8-5.9c3.3,6.1,7,12.2,8,19.2
		c1.4,9.7,3.2,19.3,4.1,29c1,10.1,2.8,20,3.8,30.1c-6.9-15.5-9.7-32.5-13-49c-1.5-11.5-3.6-23-6.1-34.4
		C386.3,488.8,387.1,486.8,387.8,484.8z"/>
	<path class="st32" d="M685.9,497.3c2-4.2,4.6-8.1,6.4-12.4c0.6,2,1.4,4,2.1,6c-2.5,11.4-4.5,22.8-6.1,34.4
		c-3.3,16.6-6.1,33.5-13,49c2.8-20.4,4.7-41,8.4-61.3c1.3-6.1,4.6-11.5,7.5-17c-2.3,2-4.6,3.9-6.8,5.9
		C684.9,500.3,685.4,498.8,685.9,497.3z"/>
</g>
<g id="_-c7a286ff" serif:id="#c7a286ff">
	<path class="st33" d="M388.9,495.9c2.3,2,4.6,3.9,6.8,5.9c2.6,3.5,5.1,7.1,8,10.3c3.4,3.8,7.9,6.3,12.2,8.8
		c-6.3-0.8-11.7-4.2-17-7.5c1.2,5.1,1.4,10.3,1.7,15.5c1.9-1,3.9-2,5.8-3c0.2,4.5,0.3,9.1,0.8,13.6c3.9-2.6,7.1-6,9.6-9.9
		c-0.1,2.9,0.5,5.8,1.6,8.4c4.3-2.4,8.5-5.2,13.4-6.4c-5.5,10.3-12,19.9-18.2,29.7c-2.1,3.6-4.6,7-5.9,11c-1.1,2.9,0.7,5.8,1.7,8.5
		c-0.5,0-1.6,0.1-2.1,0.1c-1-2.2-1.7-4.5-2.4-6.8c-1-10.1-2.8-20-3.8-30.1c-0.9-9.7-2.8-19.3-4.1-29
		C395.9,508.1,392.2,502,388.9,495.9z"/>
</g>
<g id="_-c6a286ff" serif:id="#c6a286ff">
	<path class="st34" d="M684.3,501.8c2.2-2.1,4.5-4,6.8-5.9c-2.9,5.5-6.3,10.9-7.5,17c-3.7,20.3-5.6,40.9-8.4,61.3
		c-0.8,2.4-1.6,4.8-2.6,7.1c-0.5-0.2-1.3-0.6-1.8-0.8c0.9-2.3,2.4-4.7,1.8-7.2c-1-4.1-3.6-7.6-5.7-11.2c-6.3-10-13-19.9-18.6-30.4
		c4.7,1.1,8.8,3.9,13.1,5.9c1.3-2.5,1.5-5.3,1.8-8c2.6,3.8,5.8,7.3,9.7,9.9c0.5-4.5,0.6-9,0.6-13.5c1.9,1,3.7,2,5.6,3.1
		c0.9-5.2,0.9-10.5,2.1-15.6c-5.3,3.2-10.7,6.6-17,7.5c4.4-2.5,8.9-5,12.2-8.8C679.3,508.9,681.7,505.3,684.3,501.8z"/>
</g>
<g id="_-674121ff" serif:id="#674121ff">
	<path class="st35" d="M515.7,502.5c16.1,1.6,32.4,1.6,48.5,0c0.7,1.5,1.5,3,2.2,4.6c-6,1.1-12,1.8-18.1,2
		c-11.7,0.2-23.4,0.3-34.9-2C514.2,505.5,515,504,515.7,502.5z"/>
</g>
<g id="_-dcc19dff" serif:id="#dcc19dff">
	<path class="st36" d="M506,507.1c1.1-0.7,2.2-1.3,3.3-2c1.1,0.5,2.2,1,3.2,1.6c-1.7,1.6-3.4,3.2-5.1,4.8c3.8-0.7,8.1-2,11.7,0.2
		c3.7,1.5,3.9,6.1,4.3,9.5c-0.2,1.4-0.5,2.8-0.8,4.2c-0.4-0.2-1.1-0.6-1.5-0.8c-0.3-0.1-0.9-0.5-1.1-0.6c-0.3-3.4-0.3-7-2.5-9.8
		c-3.6-1.4-7.4-0.2-10.8,1c-1.5,0.2-3.6,1.8-4.4-0.3C503,512,504.5,509.5,506,507.1z"/>
	<path class="st36" d="M567.5,506.7c1.1-0.5,2.2-1,3.2-1.6c1.1,0.6,2.2,1.3,3.3,2c2,2.7,3.2,6,3.6,9.3c-4.9-1.3-9.9-4.1-15.1-2.2
		c-2.2,2.8-2.2,6.4-2.5,9.8c-0.3,0.1-0.8,0.5-1.1,0.6c-0.4,0.2-1.1,0.6-1.5,0.8c-0.3-1.4-0.5-2.8-0.8-4.2c0.4-3.4,0.6-8,4.3-9.5
		c3.6-2.2,7.8-0.9,11.7-0.2C570.9,509.8,569.2,508.3,567.5,506.7z"/>
</g>
<g id="_-dcc5b0ff" serif:id="#dcc5b0ff">
	<path class="st37" d="M398.8,513.5c5.3,3.2,10.7,6.6,17,7.5c6.5,1.8,13.2,2.5,19.9,2.4c-1.3,2.8-2.6,5.6-4.1,8.4
		c-4.9,1.2-9,4.1-13.4,6.4c-1.1-2.7-1.7-5.5-1.6-8.4c-2.5,3.9-5.7,7.3-9.6,9.9c-0.5-4.5-0.6-9.1-0.8-13.6c-1.9,1-3.9,2-5.8,3
		C400.3,523.7,400,518.5,398.8,513.5 M410.4,532.9c1.8-2,3.5-4,5.1-6.1c-0.6-0.4-1.7-1.1-2.3-1.5C411.3,527.4,410.3,530,410.4,532.9
		z"/>
	<path class="st37" d="M664.1,520.9c6.3-0.8,11.7-4.2,17-7.5c-1.2,5.1-1.2,10.4-2.1,15.6c-1.9-1-3.7-2-5.6-3.1c0,4.5-0.2,9-0.6,13.5
		c-3.9-2.6-7.1-6-9.7-9.9c-0.2,2.7-0.4,5.5-1.8,8c-4.4-2-8.4-4.8-13.1-5.9c-1.5-2.7-2.8-5.6-4.1-8.4
		C650.9,523.4,657.7,522.7,664.1,520.9 M664.5,526.8c1.7,2,3.4,4.1,5.2,6.1c0-2.8-1-5.4-2.8-7.6
		C666.2,525.7,665.1,526.4,664.5,526.8z"/>
</g>
<g id="_-caa88eff" serif:id="#caa88eff">
	<path class="st38" d="M410.4,532.9c0-2.8,1-5.4,2.8-7.6c0.6,0.4,1.7,1.1,2.3,1.5C413.8,528.8,412.1,530.9,410.4,532.9z"/>
	<path class="st38" d="M664.5,526.8c0.6-0.4,1.8-1.1,2.3-1.5c1.8,2.1,2.9,4.7,2.8,7.6C667.9,530.9,666.2,528.8,664.5,526.8z"/>
</g>
<g id="_-dabc96ff" serif:id="#dabc96ff">
	<path class="st39" d="M507.9,532.4c1.3-0.9,2.6-1.8,4-2.6c-2,4.7-4.6,9.6-9.2,12.2C504.1,538.6,505.7,535.4,507.9,532.4z"/>
	<path class="st39" d="M568.2,529.8c1.3,0.9,2.7,1.7,4,2.6c2.1,3,3.8,6.2,5.2,9.5C572.7,539.3,570.2,534.5,568.2,529.8z"/>
</g>
<g id="_-ffffffff" serif:id="#ffffffff">
	<path class="st40" d="M436.6,534.6c0.3,0.7,0.9,2,1.3,2.7c-1.6,6.1-2.9,12.3-3.8,18.5c4.2-0.9,8.3-2.7,12.6-2.4
		c3.3,1.4,4.4,5.3,5.1,8.5c1.6,9.4,0.2,19.1,3.1,28.2c8.1-3.2,14.7-9.1,21.8-14.1c7.7-5.5,15-11.8,23.9-15.3c4.6-1.9,8.7,3,13.3,1.8
		c3.6-0.7,7.3-1.6,11-2c3.6-7.3,8-14.2,10.6-22c1.5,3.1,3,6.3,5,9.2c1.3-3.1,2.5-6.2,4-9.2c2.7,7.8,7,14.8,10.7,22.1
		c3.7,0.4,7.3,1.3,11,2c4.6,1.2,8.7-3.7,13.3-1.8c9.1,3.5,16.6,10.1,24.5,15.7c6.9,4.8,13.3,10.5,21.2,13.6
		c2.9-9.2,1.5-18.9,3.1-28.2c0.7-3.2,1.8-7.1,5.1-8.5c4.3-0.3,8.5,1.4,12.6,2.4c-0.9-6.2-2.2-12.4-3.8-18.5c0.3-0.7,0.9-2,1.3-2.7
		c4.6,10.6,10.2,20.8,15.9,30.9c0,0.5,0.1,1.5,0.2,2c-3-2.1-5.9-4.4-8.9-6.6c-0.1,7.9,0.2,15.9-1.6,23.7c-3.2-3.6-6.8-6.8-10.9-9.3
		c-1.2,7.4-0.9,15-2.7,22.3c-1,4.2-2.6,8.2-4,12.3c-2.8-4.2-5.7-8.2-9.7-11.3c-4.1,8.4-7.4,17.3-12.6,25.1
		c-1.6-5.4-3.2-10.9-5.7-15.9c-3.8-7.8-9.5-14.3-14.5-21.3c-1.6-2.4-3.9-4.2-6.3-5.7c0.3,10.9,2.3,21.9-0.2,32.8
		c-4.1-6.5-7.9-13.3-12.9-19.1c-0.6,0.2-1.7,0.5-2.3,0.6c-2.6,7.5-4.5,15.3-7.4,22.8c-6.2-13.6-8.6-28.7-16.7-41.5
		c-2.1,0-4.1,0-6.2,0c-8,12.8-10.5,27.9-16.7,41.5c-2.9-7.5-4.8-15.3-7.4-22.8c-0.6-0.1-1.7-0.5-2.3-0.6c-5,5.9-8.8,12.7-12.9,19.1
		c-2.6-10.8-0.6-21.9-0.2-32.8c-6.1,3.5-9.1,10.2-13.5,15.4c-6.4,8.1-10.5,17.7-13,27.6c-5.3-7.8-8.6-16.7-12.6-25.1
		c-3.9,3.1-6.9,7.2-9.6,11.3c-2.2-6-4.5-12-5.2-18.4c-0.6-5.4-0.8-10.8-1.6-16.2c-4.1,2.4-7.7,5.7-10.9,9.2
		c-1.9-7.8-1.5-15.8-1.6-23.7c-3,2.2-5.9,4.5-8.9,6.6c0-0.5,0.1-1.5,0.2-2.1C426.4,555.4,432,545.2,436.6,534.6z"/>
	<path class="st40" d="M421.3,570.5c2.2-2.3,4.4-4.7,6.6-7.1c0,6.4,0,12.9,0.8,19.2C425.6,579,423.2,574.9,421.3,570.5z"/>
	<path class="st40" d="M652.1,563.4c2.1,2.4,4.3,4.8,6.6,7.1c-1.9,4.4-4.3,8.5-7.3,12.2C652.1,576.3,652.1,569.8,652.1,563.4z"/>
</g>
<g id="_-cba77cff" serif:id="#cba77cff">
	<path class="st41" d="M463.9,542.6c3.7,1.1,7.5,2.1,11.2,3.2c-2.4,1-4.9,1.9-7.6,1.9C465.8,546.3,464.8,544.4,463.9,542.6z"/>
	<path class="st41" d="M604.9,545.8c3.7-1.1,7.5-2.2,11.2-3.2c-1,1.8-2,3.8-3.6,5.1C609.9,547.7,607.3,546.8,604.9,545.8z"/>
</g>
<g id="_-c6c6c6ff" serif:id="#c6c6c6ff">
	<path class="st42" d="M420.5,567.5c3-2.1,5.9-4.4,8.9-6.6c0.1,7.9-0.2,15.9,1.6,23.7c3.2-3.6,6.8-6.8,10.9-9.2
		c0.8,5.3,1,10.8,1.6,16.2c0.7,6.4,2.9,12.4,5.2,18.4c2.7-4.2,5.7-8.2,9.6-11.3c4.1,8.4,7.4,17.3,12.6,25.1
		c2.6-9.9,6.6-19.5,13-27.6c4.4-5.2,7.4-11.9,13.5-15.4c-0.3,10.9-2.3,21.9,0.2,32.8c4.1-6.5,7.9-13.3,12.9-19.1
		c0.6,0.2,1.7,0.5,2.3,0.6c2.6,7.5,4.5,15.3,7.4,22.8c6.2-13.6,8.6-28.8,16.7-41.5c2.1,0,4.1,0,6.2,0c8,12.8,10.5,27.9,16.7,41.5
		c2.8-7.5,4.7-15.3,7.4-22.8c0.6-0.1,1.7-0.5,2.3-0.6c5,5.9,8.8,12.7,12.9,19.1c2.6-10.8,0.5-21.9,0.2-32.8c2.4,1.5,4.7,3.4,6.3,5.7
		c5,7,10.7,13.6,14.5,21.3c2.5,5.1,4.1,10.5,5.7,15.9c5.3-7.8,8.6-16.7,12.6-25.1c3.9,3.1,6.9,7.2,9.7,11.3c1.5-4,3-8.1,4-12.3
		c1.8-7.3,1.5-14.9,2.7-22.3c4.1,2.4,7.7,5.7,10.9,9.3c1.9-7.8,1.5-15.8,1.6-23.7c3,2.2,5.9,4.5,8.9,6.6c0-0.5-0.1-1.5-0.2-2
		c0.3,0.5,0.9,1.4,1.2,1.8c-0.6,1.1-1.2,2.1-1.8,3.2c-2.3-2.3-4.4-4.7-6.6-7.1c0,6.4,0,12.9-0.8,19.3c-3.5,8.2-3.8,17.6-9.1,25
		c-6.9,9.5-15.2,18.1-25,24.6c-6.1,4-13.4,5.3-19.9,8.6c-4.7,2.3-9.1,5.4-14.3,6.7c-10.6,2.6-21.5,3.8-32.5,3.8
		c-18.2,0.1-36.7,0.8-54.4-4c-4.8-1.4-9-4.3-13.4-6.5c-6.5-3.2-13.8-4.5-19.9-8.5c-7.8-5-14.5-11.5-20.4-18.6
		c-3.6-4.3-7.1-8.9-8.8-14.4c-1.7-5.5-2.8-11.2-5-16.5c-0.8-6.4-0.8-12.8-0.8-19.2c-2.2,2.4-4.3,4.8-6.6,7.1
		c-0.6-1.1-1.2-2.1-1.8-3.2c0.3-0.5,0.9-1.4,1.2-1.9C420.7,566,420.6,567,420.5,567.5z"/>
</g>
<g id="_-979797ff" serif:id="#979797ff">
	<path class="st43" d="M416,572.9c1.1-1.9,2.3-3.8,3.5-5.6c0.6,1,1.2,2.1,1.8,3.2c1.9,4.4,4.3,8.5,7.3,12.2c2.2,5.3,3.3,11,5,16.5
		c1.6,5.5,5.2,10.1,8.8,14.4c5.9,7.1,12.7,13.6,20.4,18.6c6.1,4,13.4,5.3,19.9,8.5c4.5,2.1,8.6,5,13.4,6.5c17.7,4.8,36.2,4.1,54.4,4
		c10.9,0,21.9-1.1,32.5-3.8c5.1-1.3,9.5-4.4,14.3-6.7c6.5-3.2,13.8-4.5,19.9-8.6c9.8-6.5,18.1-15.1,25-24.6c5.4-7.3,5.6-16.8,9.1-25
		c3-3.7,5.5-7.8,7.3-12.2c0.6-1.1,1.1-2.1,1.8-3.2c1.2,1.9,2.4,3.7,3.5,5.6c-4.4,2.9-10.6,5.6-10.9,11.7c-0.3,6.5,1.1,13,1.6,19.5
		c-4.3,2.6-8.6,5.9-10.6,10.7c-3.5,7.8-5.4,16.8-11.7,23.1c-3.1,1.8-6.8,1.6-10.2,2.6c-5.9,1.4-10.5,5.5-15.1,9.1
		c-1.4,1-2.8,2.5-4.7,2.2c-5.5-0.3-10.9-2.4-16.4-1.1c-5.7,1.4-10.4,5.2-15.6,7.6c-3.4,1.9-7.1-0.4-10.5-0.9
		c-6.7-1.9-13.2,1.4-19.9,1.7c-6.6-0.4-13.2-3.6-19.9-1.7c-3.4,0.5-7.1,2.8-10.5,0.9c-5.3-2.4-9.9-6.2-15.6-7.6
		c-5.5-1.3-10.9,0.8-16.4,1.1c-1.9,0.3-3.3-1.2-4.7-2.2c-4.6-3.6-9.2-7.7-15.1-9.1c-3.3-1-7.1-0.9-10.2-2.6
		c-6.2-6.3-8.1-15.3-11.6-23.1c-2-4.8-6.3-8-10.6-10.7c0.5-6.5,1.8-13,1.6-19.5C426.7,578.5,420.4,575.8,416,572.9z"/>
</g>
<g id="_-ae8f70ff" serif:id="#ae8f70ff">
	<path class="st44" d="M409.3,580.8c2.7,0.6,5.5,1.6,7.7,3.4c1.1,5.1-0.5,10.3-0.8,15.4c-1.8-6.8-5.4-12.7-9-18.7
		C407.8,580.9,408.8,580.9,409.3,580.8z"/>
</g>
<g id="_-ad8f70ff" serif:id="#ad8f70ff">
	<path class="st45" d="M663,584.2c2.4-1.7,5.1-2.7,7.8-3.8c0.5,0.2,1.3,0.6,1.8,0.8c-3.6,5.8-7.1,11.7-8.8,18.4
		C663.5,594.5,661.9,589.4,663,584.2z"/>
</g>
<g id="_-2f6b9dff" serif:id="#2f6b9dff">
	<path class="st46" d="M376.5,655.3c0.9-7.5,6.4-13,11.5-18.1c1.2,12.3,2,24.6,3.2,36.9c1.7,17.6,2.1,35.4,5.4,52.8
		c1.4,9.6,4.1,18.9,5.2,28.5c1.1,11.5,2.9,22.9,6.1,34c3.7,12.8,8.5,25.3,12.8,38c6.9,19.4,15.4,38.1,22.8,57.2
		c10.6,26.9,21.1,54.1,35.1,79.5H452c-2.1-5.2-3.8-10.7-5.7-16c-5.9-16.3-9.6-33.3-16.2-49.3c-2.7-6.3-6.9-11.7-11.5-16.8
		c-2-7.1-4.5-14.2-4.5-21.6c0.4-3.7,1-7.3,1.7-10.9c0.9-2.2,2.1-4.2,2.6-6.6c-0.5-1.8-1.6-3.3-2.6-4.8c-1-1.5-2.2-2.9-3.3-4.3
		c-0.1-0.4-0.2-1.2-0.3-1.6c-1-3.8-2.9-7.3-4.8-10.7c-5.2-18.6-10.9-37.1-14.6-56.1c-3.1-15.2-5.4-30.5-8.1-45.7
		c-1.2-7.6-3.5-14.9-4.5-22.5c-0.5-4-0.4-8.1-1.1-12.1c-0.7-3.8-3-7.1-5.2-10.2C378.8,669.7,375.4,661.9,376.5,655.3z"/>
	<path class="st46" d="M692,637.2c5.1,5,10.6,10.6,11.5,18.1c1.1,6.6-2.3,14.4,2.9,19.9c-2.2,3.1-4.5,6.3-5.2,10.2
		c-0.7,4-0.7,8.1-1.1,12.1c-1.1,7.9-3.4,15.6-4.7,23.4c-3.8,22.1-7.1,44.4-12.9,66.2c-2.9,11.7-6.5,23.1-9.7,34.8
		c-1.9,3.4-3.8,6.9-4.8,10.7c-0.1,0.4-0.2,1.2-0.3,1.6c-1.2,1.4-2.3,2.8-3.3,4.3c-1,1.5-2.1,3-2.6,4.8c0.4,2.3,1.7,4.4,2.6,6.6
		c0.7,3.6,1.3,7.2,1.7,10.9c-0.1,7.4-2.6,14.5-4.5,21.6c-5.1,5.6-9.7,11.8-12.4,19c-3.9,10.5-7.3,21.2-10.3,31.9
		c-3.2,10.4-6.8,20.8-10.6,31h-26.5c19-34.7,31.5-72.4,47-108.7c7.7-17.9,13.8-36.3,20.1-54.7c5.6-15.5,8.4-31.9,10-48.2
		c3.1-16.2,6.7-32.4,7.9-48.9C688.1,681.6,690.2,659.4,692,637.2z"/>
	<path class="st46" d="M195.7,764.4c22.1-14.4,48.4-19.9,73.2-27.9c-9.6,9.4-19.5,18.5-28.2,28.7c-4.6,5.6-9,11.6-10.9,18.6
		c-2,8,0.6,16.3,3.8,23.7c3.4,8,9.1,14.6,13.2,22.2c-5.8-1.2-10.7-5.2-13-10.7c-5-11.1-7.8-23.4-6.6-35.6c0.9-9.3,6.2-17.2,10.9-25
		c-3.8,1.6-7.6,3.2-11.4,5c-4.4,1.9-8.5,4.3-12.6,6.9c-15.9,6.8-29.1,18.8-39,32.7c-4.2,5.9-3,13.7,0.9,19.5c-0.9,2.2-1.9,4.3-3,6.4
		c-7.8-1.3-14.2-6.2-21.6-8.8c-8.4-3-17-5.1-25.7-7c-10.2-2.4-19.3,4.2-28.1,8.3c-14.9,7.1-28.1,17.2-40.4,28.2
		c-6.2,5.8-12.3,11.8-17.2,18.9c-11.9,12.2-22.9,25.8-28.6,42.1c-1.8,4.8-3.6,9.7-5.2,14.6c-3,7.4-5,15.1-6.2,23v-52
		c9.5-12,20.4-22.7,30.7-34c9.2-10.5,19.7-19.7,30.5-28.6c17.5-13.6,38.5-21.4,58.8-29.9c16.6-7.5,33.9-13.3,50.2-21.5
		C179.5,777.5,187,770.1,195.7,764.4z"/>
	<path class="st46" d="M811.1,736.5c22.3,7.1,45.4,12.3,66.1,23.6c7.6,4,14.3,9.4,21.1,14.7c7.2,5.6,15.5,9.6,23.9,13.1
		c10.1,4.5,20.5,8.3,30.6,12.6c15.8,7,32.3,12.7,47.5,21.1c16.3,8.2,29.6,20.8,42.5,33.4c12.4,13.8,25.7,26.7,37.3,41.1v52
		c-1.3-7.8-3.2-15.6-6.2-23c-3.6-10.4-7.1-21-12.8-30.4c-5.9-9.6-13.1-18.3-21.1-26.2c-9.3-13.1-21.9-23.4-34.5-33.1
		c-9.2-7.1-19.7-12.3-30-17.5c-6.3-3-13.1-6.6-20.3-4.9c-8.7,1.9-17.4,4-25.8,6.9c-7.7,2.5-14.3,7.7-22.4,9.1
		c-1.2-2.1-2.2-4.2-3-6.4c2.6-4.5,4.7-9.9,2.9-15.1c-2.4-6.8-7.9-11.7-12.6-17c-7.9-8.7-17.8-15.4-28.5-20.1c-4-2.6-8.2-5-12.6-6.9
		c-3.8-1.7-7.6-3.4-11.4-5c4.7,7.8,10,15.7,10.9,25c1.2,12.4-1.7,25.1-7,36.3c-2.3,5.2-7.1,8.8-12.6,10c3.6-6.7,8.5-12.5,11.9-19.4
		c3.6-7.4,6.5-15.6,5.6-23.9c-1.3-8.4-6.6-15.4-11.9-21.8C830.1,754.7,820.4,745.7,811.1,736.5z"/>
	<path class="st46" d="M309.5,786.5c15.9-6.6,33-9.1,49.9-11.4c-0.8,12.2,1,24.6,5.8,35.8c3.1,7.3,9.4,12.9,16.6,16.1
		c7.7,3.8,16.3,4.4,24.5,6.7c-2.8,7.7-6.9,15-8.4,23.2c-6.5-4.9-11.7-11.4-18.4-15.9c-6.4-4.4-12.5-9.2-17.8-14.9
		c-4.9-5-9-10.7-14.7-14.8c-4.9-3.4-11.1-3.9-16.8-3.8c-18.8,0.7-37.6,4.1-55.2,11c-7.2,3.9-14.2,8.5-22.2,10.8
		c2.2-5,5.5-9.4,9.4-13.1C275.5,802.9,292.2,793.6,309.5,786.5z"/>
	<path class="st46" d="M720.6,775.2c16.4,2.2,33,4.5,48.4,10.7c14.4,5.8,28.3,13,40.4,22.8c6.9,5.9,14.2,12,17.8,20.6
		c-8.6-2.4-15.8-7.7-23.7-11.5c-12.1-4.3-24.7-7.7-37.5-9c-8.8-0.9-17.7-2.4-26.4-0.4c-7.5,1.7-12.4,8-17.3,13.3
		c-6.2,7.2-13.3,13.6-21.2,18.9c-7,4.6-12.4,11.2-19.1,16.4c-1.4-8.2-5.5-15.5-8.4-23.2c5.3-1.5,10.7-2.2,16-3.6
		c10.1-2.7,20.3-8.5,24.8-18.4C719.5,800.3,721.4,787.6,720.6,775.2z"/>
	<path class="st46" d="M82.2,957.8c20.8-10.8,44-17.7,67.6-16.9c11.8,0.5,22.9,4.9,34.5,6.8c18.3,3.3,36.1,9,54.5,11.9
		c8.9,1.8,18.1,1.5,26.7,4.6H81C81.5,962.1,81.9,959.9,82.2,957.8z"/>
	<path class="st46" d="M915.5,943.1c9.8-2.6,20.1-2.8,30.2-1.7c18.3,1.7,35.8,8,52.1,16.3c0.3,2.1,0.7,4.3,1.2,6.4H814.5
		c3.9-1.2,7.9-2.3,11.9-2.6c15.8-1.5,31.4-5,46.8-9C887.2,949.1,901.5,946.9,915.5,943.1z"/>
</g>
<g id="_-ad7448ff" serif:id="#ad7448ff">
	<path class="st47" d="M419.8,640.5c3.5-1.7,8.7-2.1,11.6,1c3.3,3.3,6.1,7.3,10,9.9c7.2,4.9,15.1,8.9,23.4,11.6
		c8.5,2.8,16.7,7.1,25.7,8c9.3,1,18.3,3.6,27.5,4.9c10.4,1.9,21.1,2.7,31.7,1.7c9.8-1,19.4-2.8,29.1-4.9c7-1.6,14.4-1.6,21.2-4.1
		c14-5.5,29.1-9.4,41-19.1c3.5-2.8,5.8-6.9,9.4-9.5c3-1.4,6.9-1.1,9.9,0.4c2.9,4,3.9,9.1,5.4,13.8l0.2,0.9c-6.7,3.3-13.4,6.4-20,10
		c-17.9,9.6-37.5,15.3-56.9,21.2c-10.7,3.5-22.1,3.4-33.2,4.6c-10.8,1.1-21.7,1-32.5-0.1c-9.9-1.1-20.1-1-29.8-3.8
		c-18.7-5.6-37.6-11.1-55.1-19.7c-8-4.3-16-8.2-24.1-12.2l0.2-0.9C415.9,649.6,416.9,644.5,419.8,640.5z"/>
</g>
<g id="_-e5c1a0ff" serif:id="#e5c1a0ff">
	<path class="st48" d="M421.2,669.3c3.3-1.2,6.9,0.3,9.9,1.8c6.8,3.7,12.6,9.5,20.3,11.4c8.9,2.3,18,4.4,26.8,7
		c15.1,3.7,30.5,6.2,45.9,7.8c20.4,2.7,41-0.8,61-4.3c13-2,25.5-6.3,38.3-9.1c4.6-1.1,9.1-2.4,13.2-4.8c6-3.5,11.3-8.8,18.4-10.1
		c3.6-0.8,7.2,1.9,8.1,5.4c1.2,5.5,0.2,11.3-0.6,16.8c-4.4,25.1-10.5,49.9-19.2,73.9c-1,3.3-4.7,4-7.5,5.1c-7.2,2-14.1,4.8-21.1,7.2
		c-6.4,2.3-12.4,5.7-19,7.3c-10.1,2.6-20.2,5.8-30.5,7.5c-20.2,2.9-41,2.7-60.8-2.2c-9.1-2.5-18.3-4.5-27.2-7.7
		c-11.2-5-22.9-9-34.6-12.7c-2.4-0.9-5.2-1.8-5.9-4.6c-8.6-23.6-14.6-48.2-19-72.9c-0.9-5.5-1.8-11.2-0.9-16.8
		C417,672.7,418.8,670.3,421.2,669.3z"/>
</g>
<g id="_-7ebde5ff" serif:id="#7ebde5ff">
	<path class="st49" d="M357.5,685.7c5.3-3.6,11.1-6.4,16.1-10.6c2.2,3.1,4.5,6.3,5.2,10.2c0.7,4,0.6,8.1,1.1,12.1
		c-3.7,3.6-8.1,6.3-12.7,8.6c-17.1,9-33.8,18.7-50.4,28.7c-13.7,8.4-27.8,16.1-40.4,26.1c-9.6,7.6-19.5,15-27,24.6
		c-2.2,2.8-4.9,5.2-7.8,7.3c0-3,0.6-6.1,2.2-8.7c4.1-7.5,10-13.8,16-19.9c16.5-16.9,34.2-32.8,52.9-47.3
		C327.1,705.7,342.4,695.9,357.5,685.7z"/>
	<path class="st49" d="M701.2,685.3c0.7-3.8,3-7,5.2-10.2c1.8,1.5,3.7,2.8,5.7,4.1c11.6,6.9,22.5,14.7,33.8,22.1
		c24.5,16.5,47.1,35.7,68.1,56.4c7.9,8,16.2,15.8,21.9,25.6c1.7,2.8,2.5,6.1,2.5,9.4c-3.1-2.2-5.9-4.9-8.3-7.9
		c-7.1-9-16.4-16-25.3-23.2c-9.6-7.6-19.9-14.1-30.4-20.3c-16.7-10.1-33.4-20.3-50.6-29.5c-8-4.7-16.9-8-23.7-14.5
		C700.5,693.4,700.4,689.3,701.2,685.3z"/>
	<path class="st49" d="M214.2,770.2c4-2.6,8.2-5,12.6-6.9c0.3,3.4-0.4,6.9-2.4,9.7c-6.3,10.2-12.2,20.8-15,32.5
		c-3.3,12.6-2.7,25.8-4.6,38.6c-0.7,5.6-4.9,9.9-9.5,12.7c-11.5,7.6-25.6,9.1-38.8,11.8c-14.6,2.5-30.2,4.4-42.4,13.6
		c-8.6,6.3-12.9,16.3-18,25.2c-8.6,15.4-11.9,33-13.9,50.4c-3.7,2.1-7.3,4.4-11.1,6.4H0v-1.7c2.4-12.4,4.5-24.9,6.2-37.5
		c1.6-4.9,3.4-9.8,5.2-14.6c5.7-16.2,16.7-29.9,28.6-42.1c15.5-11.9,29.9-25.4,46.4-36c5.9-3.9,12.9-5.9,19.8-6.6
		c22-2.6,44,1.3,65.7,4.9c0.3-0.5,0.8-1.4,1-1.8c1.1-2.1,2.1-4.2,3-6.4c5.7-15.3,13.6-30.2,25.8-41.2
		C206.1,777.6,210.2,774,214.2,770.2z"/>
	<path class="st49" d="M853.2,763.3c4.4,1.9,8.5,4.3,12.6,6.9c6.6,6.4,14.3,11.8,20,19.1c8.2,9.7,13.6,21.3,18.1,33.1
		c0.9,2.2,1.8,4.3,3,6.4c0.3,0.4,0.8,1.3,1,1.8c22.3-3.6,45-7.8,67.6-4.6c6.6,0.8,13,3.1,18.6,6.8c16.2,10.6,30.5,23.8,45.8,35.6
		c7.9,8,15.2,16.7,21.1,26.2c5.7,9.5,9.2,20,12.8,30.4c1.8,12.5,3.9,25,6.2,37.5v1.7h-71.1c-3.8-2-7.4-4.3-11.1-6.4
		c-2-16.6-5-33.4-12.9-48.3c-3.3-6.1-6.5-12.3-10.3-18c-4.7-7-11.8-12.1-19.5-15.3c-11.7-4.9-24.6-5.9-36.9-8.5
		c-10.5-2.1-21.4-3.8-30.9-9.2c-5.3-3-10.8-7.1-11.9-13.4c-1.7-9.5-1.6-19.2-2.8-28.8c-1.5-13-6.3-25.4-13-36.5
		C856.7,774.6,852.3,769.6,853.2,763.3z"/>
	<path class="st49" d="M371,785.9c5.9,5.1,10.6,11.4,16.3,16.7c6.8,6.3,13.8,12.2,19.9,19.2c1.9,3.4,3.8,6.9,4.8,10.7
		c-5-4.1-10.2-8.1-15.9-11.3c-6.1-3.5-12.9-6.5-17.3-12.2C374.3,802.1,372.7,793.8,371,785.9z"/>
	<path class="st49" d="M693.2,802.1c5.5-5.1,10.1-11.2,15.8-16.2c-1.4,7-3,14-6.3,20.5c-3.3,6.5-10.1,9.8-16.1,13.3
		c-6.7,3.4-12.8,8-18.6,12.8c1-3.8,2.9-7.3,4.8-10.7C679,814.7,686.3,808.6,693.2,802.1z"/>
	<path class="st49" d="M412.4,834.1c1.2,1.4,2.3,2.7,3.3,4.3c0.1,3.8,0.1,7.6,0,11.4c-0.7,3.6-1.3,7.2-1.7,10.9
		c-0.5,5.2-0.9,10.3-1.5,15.5c-4.6-5.7-6.5-13.3-5.4-20.6C407.7,848.1,411.4,841.4,412.4,834.1z"/>
	<path class="st49" d="M664.3,838.3c1-1.5,2.2-2.9,3.3-4.3c1,7.3,4.7,14,5.2,21.5c1.1,7.2-0.8,14.8-5.4,20.6
		c-0.5-5.2-0.9-10.3-1.5-15.5c-0.4-3.7-1-7.3-1.7-10.9C664.2,845.9,664.2,842.1,664.3,838.3z"/>
</g>
<g id="_-3e8cceff" serif:id="#3e8cceff">
	<path class="st50" d="M367.2,706.1c4.6-2.3,9-5,12.7-8.6c1,7.6,3.3,15,4.5,22.5c2.7,15.2,5,30.5,8.1,45.7
		c3.7,19,9.4,37.5,14.6,56.1c-6.1-7-13.2-12.9-19.9-19.2c-5.7-5.3-10.4-11.6-16.3-16.7c-1.1-5-1.2-10.1-2.6-15.1
		c-1.1-3.8-5.2-5.3-8.8-5.8c-8.6-1.1-17.3,0-25.9,1.3c-18.8,3-36.3,11.3-52.2,21.7c-12.4,8-23.1,18.4-31.4,30.6
		c-3.2-8.5-7.7-16.7-8.5-25.8c2.9-2.1,5.5-4.5,7.8-7.3c7.6-9.7,17.5-17.1,27-24.6c12.6-10,26.7-17.7,40.4-26.1
		C333.4,724.7,350.1,715,367.2,706.1z"/>
	<path class="st50" d="M700,697.5c6.8,6.5,15.7,9.8,23.7,14.5c17.2,9.2,33.9,19.5,50.6,29.5c10.5,6.2,20.8,12.7,30.4,20.3
		c8.9,7.1,18.2,14.1,25.3,23.2c2.4,3,5.2,5.6,8.3,7.9c-0.9,9.2-5.4,17.3-8.5,25.8c-13.5-20.5-34.6-34.5-56.7-44.3
		c-14.9-6.5-31.3-9.7-47.5-9.6c-4.7,0.3-10.6,0.4-13.4,4.8c-2.2,5.2-2,11-3.3,16.5c-5.7,5-10.3,11-15.8,16.2
		c-6.9,6.5-14.2,12.6-20.5,19.7c3.1-11.6,6.8-23.1,9.7-34.8c5.8-21.7,9.1-44,12.9-66.2C696.6,713,698.9,705.4,700,697.5z"/>
	<path class="st50" d="M226.8,763.3c3.8-1.7,7.6-3.4,11.4-5c-4.7,7.8-10,15.7-10.9,25c-1.2,12.1,1.6,24.5,6.6,35.6
		c2.3,5.5,7.2,9.5,13,10.7c2,0.3,4,0.2,5.9-0.4c8-2.3,15-6.9,22.2-10.8c17.5-6.9,36.4-10.3,55.2-11c5.8-0.1,12,0.4,16.8,3.8
		c5.7,4.1,9.9,9.8,14.7,14.8c5.3,5.7,11.4,10.5,17.8,14.9c6.8,4.5,11.9,11.1,18.4,15.9c-0.9,7.1-0.6,14.6,2.5,21.1
		c4.2,9.1,12.8,15.1,17.1,24c4,8.2,7.1,16.8,10.7,25.1c5.3,12.2,9.4,24.9,14.9,37.1H265.5c-8.6-3.1-17.8-2.8-26.7-4.6
		c-18.4-2.9-36.2-8.7-54.5-11.9c-11.6-1.9-22.7-6.3-34.5-6.8c-23.6-0.7-46.8,6.2-67.6,16.9c2-17.3,5.3-35,13.9-50.4
		c5.1-9,9.4-19,18-25.2c12.2-9.2,27.8-11,42.4-13.6c13.2-2.7,27.3-4.2,38.8-11.8c4.6-2.9,8.8-7.1,9.5-12.7c1.9-12.8,1.3-26,4.6-38.6
		c2.8-11.7,8.7-22.4,15-32.5C226.4,770.2,227.1,766.8,226.8,763.3z"/>
	<path class="st50" d="M841.8,758.4c3.8,1.6,7.6,3.2,11.4,5c-0.9,6.3,3.5,11.3,6.4,16.4c6.7,11.2,11.6,23.6,13,36.5
		c1.3,9.5,1.1,19.3,2.8,28.8c1.1,6.3,6.7,10.5,11.9,13.4c9.5,5.4,20.4,7.1,30.9,9.2c12.4,2.5,25.2,3.5,36.9,8.5
		c7.7,3.2,14.8,8.3,19.5,15.3c3.8,5.8,7,11.9,10.3,18c7.9,14.9,10.9,31.8,12.9,48.3c-16.3-8.3-33.8-14.6-52.1-16.3
		c-10.1-1.2-20.4-1-30.2,1.7c-14,3.7-28.3,5.9-42.3,9.4c-15.4,4-30.9,7.5-46.8,9c-4.1,0.3-8,1.5-11.9,2.6H636.8
		c8.6-20.4,16-41.3,25.2-61.5c4-8.6,11.8-14.4,16.4-22.6c4.1-7,4.7-15.4,3.6-23.2c6.6-5.1,12-11.7,19.1-16.4
		c7.9-5.3,15-11.7,21.2-18.9c4.9-5.3,9.8-11.7,17.3-13.3c8.7-1.9,17.7-0.5,26.4,0.4c12.8,1.3,25.4,4.7,37.5,9
		c7.9,3.8,15.1,9.1,23.7,11.5c1.9,0.6,3.9,0.7,5.9,0.4c5.5-1.2,10.3-4.8,12.6-10c5.3-11.2,8.2-23.9,7-36.3
		C851.8,774.1,846.5,766.2,841.8,758.4z"/>
	<path class="st50" d="M175.2,802.9c10-14,23.1-26,39-32.7c-4,3.8-8.2,7.4-12.4,11c-12.2,11.1-20.1,26-25.8,41.2
		C172.3,816.7,171,808.9,175.2,802.9z"/>
	<path class="st50" d="M865.8,770.2c10.7,4.8,20.6,11.4,28.5,20.1c4.7,5.2,10.2,10.2,12.6,17c1.8,5.2-0.3,10.6-2.9,15.1
		c-4.5-11.8-9.9-23.4-18.1-33.1C880.1,782,872.4,776.6,865.8,770.2z"/>
	<path class="st50" d="M97.7,821.4c8.8-4.1,17.9-10.7,28.1-8.3c8.6,2,17.3,4,25.7,7c7.4,2.6,13.8,7.5,21.6,8.8
		c-0.3,0.5-0.8,1.3-1,1.8c-21.7-3.6-43.7-7.5-65.7-4.9c-7,0.7-13.9,2.7-19.8,6.6c-16.5,10.6-30.9,24.1-46.4,36
		c4.8-7,11-13,17.2-18.9C69.5,838.6,82.7,828.4,97.7,821.4z"/>
	<path class="st50" d="M955.1,812.9c7.2-1.6,14,2,20.3,4.9c10.3,5.2,20.9,10.3,30,17.5c12.7,9.7,25.2,20,34.5,33.1
		c-15.3-11.8-29.5-25.1-45.8-35.6c-5.6-3.7-12-5.9-18.6-6.8c-22.6-3.1-45.3,1-67.6,4.6c-0.3-0.4-0.8-1.3-1-1.8
		c8.1-1.4,14.7-6.6,22.4-9.1C937.7,816.9,946.4,814.7,955.1,812.9z"/>
</g>
<g id="_-a4b1b7ff" serif:id="#a4b1b7ff">
	<path class="st51" d="M257.6,709.3C258.2,709.9,258.2,709.9,257.6,709.3z"/>
</g>
<g id="_-616161ff" serif:id="#616161ff">
	<path class="st52" d="M413.6,767.9c8.2,5,15.7,11,23.6,16.5c0.1,1.6,0.3,3.2,0.4,4.7c0.9,9.1,1.5,18.2,2.5,27.3
		c-5.6-3.8-13.2-6.4-15.3-13.4C420.3,791.6,415.8,780,413.6,767.9z"/>
	<path class="st52" d="M642.9,784.4c7.8-5.6,15.4-11.5,23.6-16.5c-2.6,13.2-7.4,25.9-12.5,38.2c-3.3,4.9-9.2,7.2-14,10.4
		c0.9-9.1,1.5-18.2,2.5-27.3C642.6,787.6,642.7,786,642.9,784.4z"/>
	<path class="st52" d="M430.6,818.4c4.4,3.4,8.5,7.1,13,10.3c0,8.3,3,16.1,5.4,23.9c4.4,13,9.5,25.8,14.2,38.7
		c5.7,15.6,14,30.1,19.6,45.7c3.3,9.3,7.4,18.4,11.9,27.2h-5.1c-1-1.6-1.9-3.2-2.7-4.9c-13.2-27.8-23.5-56.9-34.6-85.5
		C445.3,855.2,436.8,837.2,430.6,818.4z"/>
	<path class="st52" d="M636.4,828.7c4.5-3.3,8.6-7,13-10.3c-2.2,6.8-4.7,13.4-7.4,20c-10.9,26.3-21,53-31.2,79.6
		c-6.3,15.6-12.4,31.4-20.4,46.3h-5.3c5.2-9.4,9.2-19.4,12.9-29.5c3.8-10.2,8.7-20,13.2-29.9c4.2-9.2,7.3-18.8,10.9-28.2
		c4.6-12.2,9.3-24.4,12.7-37C635.9,836.1,636.3,832.4,636.4,828.7z"/>
</g>
<g id="_-b5b5b5ff" serif:id="#b5b5b5ff">
	<path class="st53" d="M437.5,789.2c-0.2-1.6-0.3-3.2-0.4-4.7c6.8,3.5,13.8,6.8,21.1,9.5c11.3,4.2,22.4,8.8,34.3,11.2
		c11.1,2.2,22.4,3.1,33.7,4.3c18,1.7,35.9-0.6,53.7-2.9c12.4-1.6,24.2-5.7,35.8-10.2c9.3-3.4,18.5-7.2,27.2-11.9
		c-0.1,1.6-0.3,3.2-0.4,4.7c-5.8,3.4-11.1,7.6-17.4,10.1c-16.1,6.7-33.4,10.3-50.7,12.5c-22.8,2.4-45.9,2.4-68.8,0
		c-17.3-2.2-34.6-5.8-50.7-12.5C448.7,796.8,443.3,792.5,437.5,789.2z"/>
</g>
<g id="_-808080ff" serif:id="#808080ff">
	<path class="st54" d="M437.5,789.2c5.8,3.4,11.1,7.6,17.4,10.2c16.1,6.7,33.4,10.3,50.7,12.5c22.8,2.4,45.9,2.4,68.8,0
		c17.3-2.2,34.6-5.8,50.7-12.5c6.2-2.6,11.6-6.8,17.4-10.1c-0.9,9.1-1.5,18.2-2.5,27.3c-2.6,3.1-6.6,4.7-10,6.8
		c-23.1,12.5-48.8,21.1-75.3,21c-8.1-0.1-16.2-0.7-24.3-0.1c-28.2,1.3-55.9-7.6-80.5-20.9c-3.4-2.1-7.4-3.6-10-6.8
		C439.1,807.4,438.5,798.3,437.5,789.2z"/>
	<path class="st54" d="M449.1,852.6c-2.4-7.8-5.5-15.6-5.4-23.9c8.3,5.4,17.3,9.6,26.3,13.6c19.3,8.4,40.7,10.9,61.6,10.5
		c10.9-0.3,21.8,0.5,32.7-0.4c16.5-0.7,33-4.3,48-11.1c8.2-3.8,16.5-7.6,24-12.7c-0.1,3.7-0.5,7.3-1.5,10.9
		c-3.4,12.6-8.1,24.8-12.7,37c-3.6,9.4-6.7,19-10.9,28.2c-4.5,9.9-9.4,19.7-13.2,29.9c-3.7,10.1-7.7,20.1-12.9,29.5h-90.4
		c-4.5-8.9-8.6-17.9-11.9-27.2c-5.6-15.6-13.9-30.1-19.6-45.7C458.6,878.4,453.5,865.6,449.1,852.6z"/>
</g>
<g id="_-3e8acaff" serif:id="#3e8acaff">
	<path class="st55" d="M415.7,838.3c1,1.5,2.1,3,2.6,4.8c-0.4,2.3-1.7,4.4-2.6,6.6C415.8,845.9,415.8,842.1,415.7,838.3z"/>
	<path class="st55" d="M661.7,843.1c0.5-1.8,1.6-3.3,2.6-4.8c-0.1,3.8-0.1,7.6,0,11.4C663.3,847.5,662.1,845.5,661.7,843.1z"/>
</g>
<g id="_-438bc7ff" serif:id="#438bc7ff">
	<path class="st56" d="M412.6,876.1c0.5-5.2,0.9-10.3,1.5-15.5c0.1,7.4,2.6,14.5,4.5,21.6C416.6,880.2,414.5,878.3,412.6,876.1z"/>
	<path class="st56" d="M665.9,860.6c0.5,5.2,0.9,10.3,1.5,15.5c-1.9,2.2-4,4.1-6,6.1C663.3,875.1,665.9,868,665.9,860.6z"/>
</g>
<g id="_-68a0c4ff" serif:id="#68a0c4ff">
	<path class="st57" d="M0,948.1c1.3-7.9,3.2-15.6,6.2-23c-1.8,12.5-3.9,25-6.2,37.5V948.1z"/>
	<path class="st57" d="M1073.8,925.1c3,7.4,5,15.1,6.2,23v14.5C1077.6,950.1,1075.5,937.6,1073.8,925.1z"/>
</g>
<g id="_-6ea5c8ff" serif:id="#6ea5c8ff">
	<path class="st58" d="M71.1,964.2c3.8-2,7.4-4.3,11.1-6.4c-0.4,2.1-0.7,4.3-1.2,6.4H71.1z"/>
	<path class="st58" d="M997.8,957.8c3.7,2.1,7.3,4.4,11.1,6.4H999C998.5,962.1,998.1,959.9,997.8,957.8z"/>
</g>
<path class="st59" d="M-686.5,510.3c-6.4,0-6.4,10,0,10C-680.1,520.3-680.1,510.3-686.5,510.3z"/>
</svg>
